<?xml version="1.0" encoding="UTF-8"?>
<svg xmlns="http://www.w3.org/2000/svg" xmlns:xlink="http://www.w3.org/1999/xlink" width="25pt" height="25pt" viewBox="0 0 25 25" version="1.1">
<g id="surface1">
<path style=" stroke:none;fill-rule:nonzero;fill:rgb(0%,0%,0%);fill-opacity:1;" d="M 0.820312 20.3125 C 0.75 19.292969 1.105469 18.289062 1.796875 17.535156 C 2.550781 16.839844 3.554688 16.480469 4.578125 16.546875 C 5.597656 16.484375 6.597656 16.835938 7.355469 17.519531 C 8.035156 18.253906 8.386719 19.230469 8.324219 20.226562 C 8.359375 20.945312 8.210938 21.664062 7.902344 22.3125 C 7.621094 22.863281 7.183594 23.316406 6.636719 23.609375 C 6.019531 23.929688 5.328125 24.085938 4.632812 24.0625 C 3.9375 24.085938 3.246094 23.953125 2.613281 23.671875 C 2.066406 23.398438 1.617188 22.972656 1.3125 22.445312 C 0.960938 21.789062 0.792969 21.054688 0.820312 20.3125 Z M 3.050781 20.3125 C 3 20.875 3.152344 21.433594 3.472656 21.898438 C 3.75 22.210938 4.15625 22.386719 4.578125 22.367188 C 5 22.394531 5.410156 22.21875 5.695312 21.902344 C 6.003906 21.402344 6.140625 20.8125 6.085938 20.226562 C 6.117188 19.703125 5.964844 19.179688 5.652344 18.75 C 5.375 18.433594 4.964844 18.257812 4.539062 18.277344 C 4.132812 18.265625 3.738281 18.4375 3.472656 18.75 C 3.152344 19.210938 3 19.765625 3.050781 20.324219 Z M 3.050781 20.3125 "/>
<path style=" stroke:none;fill-rule:nonzero;fill:rgb(0%,0%,0%);fill-opacity:1;" d="M 9.464844 16.703125 L 11.417969 16.703125 L 13.972656 20.695312 L 13.972656 16.703125 L 15.972656 16.703125 L 15.972656 23.917969 L 13.972656 23.917969 L 11.429688 19.957031 L 11.429688 23.917969 L 9.464844 23.917969 Z M 9.464844 16.703125 "/>
<path style=" stroke:none;fill-rule:nonzero;fill:rgb(0%,0%,0%);fill-opacity:1;" d="M 17.242188 16.703125 L 23.820312 16.703125 L 23.820312 18.242188 L 19.703125 18.242188 L 19.703125 19.390625 L 23.523438 19.390625 L 23.523438 20.832031 L 19.703125 20.832031 L 19.703125 22.257812 L 23.9375 22.257812 L 23.9375 23.886719 L 17.242188 23.886719 Z M 17.242188 16.703125 "/>
<path style=" stroke:none;fill-rule:nonzero;fill:rgb(0%,0%,0%);fill-opacity:1;" d="M 13.890625 7.757812 L 15.972656 7.757812 L 15.972656 14.972656 L 13.890625 14.972656 Z M 13.890625 7.757812 "/>
<path style=" stroke:none;fill-rule:nonzero;fill:rgb(0%,0%,0%);fill-opacity:1;" d="M 17.242188 7.757812 L 19.199219 7.757812 L 21.75 11.75 L 21.75 7.757812 L 23.730469 7.757812 L 23.730469 14.972656 L 21.75 14.972656 L 19.214844 11.011719 L 19.214844 14.972656 L 17.242188 14.972656 Z M 17.242188 7.757812 "/>
<path style=" stroke:none;fill-rule:nonzero;fill:rgb(0%,0%,0%);fill-opacity:1;" d="M 1.574219 13.632812 L 3.097656 11.632812 C 3.921875 12.472656 5.039062 12.96875 6.214844 13.019531 C 7.605469 13.019531 8.535156 12.445312 8.535156 11.386719 C 8.535156 10.1875 7.839844 9.449219 4.710938 9.449219 L 4.710938 7.203125 C 7.265625 7.203125 8.070312 6.449219 8.070312 5.367188 C 8.070312 4.410156 7.429688 3.859375 6.3125 3.859375 C 5.304688 3.90625 4.355469 4.335938 3.652344 5.0625 L 1.984375 3.132812 C 3.21875 2.027344 4.808594 1.410156 6.457031 1.390625 C 9.414062 1.390625 11.375 2.738281 11.375 5.136719 C 11.375 6.527344 10.527344 7.554688 9 8.171875 L 9 8.261719 C 10.644531 8.714844 11.832031 9.824219 11.832031 11.597656 C 11.832031 14.136719 9.410156 15.578125 6.542969 15.578125 C 4.683594 15.679688 2.871094 14.972656 1.574219 13.632812 Z M 1.574219 13.632812 "/>
</g>
</svg>
