<svg xmlns="http://www.w3.org/2000/svg" width="170" height="170" viewBox="0 0 170 170">
    <g fill="none" fill-rule="evenodd">
        <path fill="#F7F7F7" d="M6 85C6 41.37 41.37 6 85 6s79 35.37 79 79-35.37 79-79 79S6 128.63 6 85z"/>
        <g transform="translate(37 32)">
            <path fill="#4A4A4A" fill-rule="nonzero" d="M8.54.68h37a8 8 0 0 1 8 8v79a8 8 0 0 1-8 8h-37a8 8 0 0 1-8-8v-79a8 8 0 0 1 8-8zm0 4a4 4 0 0 0-4 4v79a4 4 0 0 0 4 4h37a4 4 0 0 0 4-4v-79a4 4 0 0 0-4-4h-37z"/>
            <path stroke="#4A4A4A" stroke-dasharray="6,8" stroke-linecap="round" stroke-width="4" d="M93.54 52.076v34.208c0 4.085-3.43 7.396-7.663 7.396H10.203c-4.232 0-7.663-3.311-7.663-7.396V52.076c0-4.085 3.43-7.396 7.663-7.396h75.674c4.232 0 7.663 3.311 7.663 7.396z"/>
            <path fill="#F7F7F7" fill-rule="nonzero" d="M8.54 4.68a4 4 0 0 0-4 4v79a4 4 0 0 0 4 4h37a4 4 0 0 0 4-4v-79a4 4 0 0 0-4-4h-37z"/>
            <rect width="84" height="4" x="6" y="102" fill="#D7D7D7" fill-rule="nonzero" rx="2"/>
            <path fill="#4A4A4A" d="M23.54 83.68a4 4 0 1 1 8 0 4 4 0 0 1-8 0zM23.04 11.68a1.5 1.5 0 0 1 0-3h8.631a1.5 1.5 0 0 1 0 3H23.04z"/>
            <path fill="#E42125" d="M69.005 14.082V8.35a.85.85 0 0 0-.513-.785.81.81 0 0 0-.9.185l-9.848 10.124a.86.86 0 0 0 0 1.2l9.848 10.122a.808.808 0 0 0 .9.185c.31-.13.513-.44.513-.785v-5.237c8.127.781 14.952 6.152 17.91 13.617.145.37.52.582.903.511a.838.838 0 0 0 .675-.805c.003-.198.007-.397.007-.6 0-11.509-8.564-20.956-19.495-21.999z"/>
        </g>
    </g>
</svg>
