<?xml version="1.0" encoding="utf-8"?>
<!-- Generator: Adobe Illustrator 21.1.0, SVG Export Plug-In . SVG Version: 6.00 Build 0)  -->
<svg version="1.1" xmlns="http://www.w3.org/2000/svg" xmlns:xlink="http://www.w3.org/1999/xlink" x="0px" y="0px" width="48px"
	 height="48px" viewBox="0 0 48 48" style="enable-background:new 0 0 48 48;" xml:space="preserve">
<style type="text/css">
	.st0{display:none;}
	.st1{display:inline;}
	.st2{fill:#E42125;}
	.st3{fill:#FF1B20;}
	.st4{fill:#B5011C;}
	.st5{fill:#EEEEEE;stroke:#FFFFFF;stroke-width:5.000000e-02;stroke-miterlimit:10;}
	.st6{font-family:'OpenSans';}
	.st7{font-size:0.737px;}
	.st8{fill:#EEEEEE;}
	.st9{font-family:'OceanSansStd-Semibold';}
	.st10{font-size:2.1216px;}
	.st11{font-family:'OceanSansStd-Book';}
	.st12{font-size:1.1602px;}
	.st13{fill:#550634;}
	.st14{fill:#ED1C24;}
	.st15{fill:#BE1E2D;}
	.st16{fill:#FFFFFF;}
	.st17{display:inline;fill:#E42125;}
	.st18{fill:#FEC88F;}
	.st19{fill:#FEFEFE;}
	.st20{fill:#FE9200;}
	.st21{fill:#FE9300;}
	.st22{fill:#FE9000;}
	.st23{fill:#931A1D;}
	.st24{filter:url(#Adobe_OpacityMaskFilter);}
	.st25{mask:url(#mask-2_1_);fill:#E42125;}
</style>
<g id="Layer_1" class="st0">
	<title>ic_mail my policy</title>
	<desc>Created with Sketch.</desc>
	<g id="Page-1" class="st1">
		<g id="menu" transform="translate(-970.000000, -66.000000)">
			<g id="ic_email" transform="translate(970.000000, 66.000000)">
				<path id="Shape" class="st2" d="M32.7,15H14.3C13,15,12,16,12,17.2l0,13.1c0,1.2,1,2.2,2.3,2.2h18.4c1.3,0,2.3-1,2.3-2.2V17.2
					C35,16,34,15,32.7,15z M33.2,19.2L24,25.1l-9.2-5.9v-2.4l9.2,5.9l9.2-5.9V19.2z"/>
			</g>
		</g>
	</g>
</g>
<g id="Register_claim" class="st0">
	<g id="XMLID_33_" class="st1">
		<g id="XMLID_31_">
			<g id="XMLID_37_">
				<path id="XMLID_30_" class="st3" d="M11.9,31.4l0-14.2c0-0.6,0.4-1,1-1h21.3c0.6,0,1,0.4,1,1v14.2c0,0.6-0.4,1-1,1H12.9
					C12.4,32.4,11.9,32,11.9,31.4z"/>
				<rect id="XMLID_122_" x="13.8" y="17.3" class="st4" width="19.9" height="13.9"/>
				<g id="XMLID_46_">
					<rect id="XMLID_53_" x="19.7" y="27.9" class="st3" width="8" height="1.3"/>
					<g id="XMLID_44_">
						<text transform="matrix(0.9356 0 0 1 21.7173 28.8779)" class="st5 st6 st7">Register Claim</text>
					</g>
				</g>
			</g>
		</g>
		<g id="XMLID_35_">
			<g id="XMLID_32_">
				<text transform="matrix(0.9356 0 0 1 19.811 21.3438)" class="st8 st9 st10">ONLINE</text>
			</g>
			<g id="XMLID_36_">
				<text transform="matrix(0.9356 0 0 1 19.811 22.8105)" class="st8 st11 st12">REGISTRATION</text>
			</g>
		</g>
		<g id="XMLID_43_">
			<rect id="XMLID_38_" x="19.5" y="23.6" class="st8" width="8.1" height="1.3"/>
			<rect id="XMLID_40_" x="19.5" y="25.9" class="st8" width="8.1" height="1.3"/>
			<g id="XMLID_41_">
				<ellipse id="XMLID_39_" class="st13" cx="20.4" cy="24.2" rx="0.2" ry="0.2"/>
				<ellipse id="XMLID_42_" class="st13" cx="21" cy="24.2" rx="0.2" ry="0.2"/>
				<ellipse id="XMLID_50_" class="st13" cx="21.6" cy="24.2" rx="0.2" ry="0.2"/>
				<ellipse id="XMLID_74_" class="st13" cx="22.3" cy="24.2" rx="0.2" ry="0.2"/>
				<ellipse id="XMLID_79_" class="st13" cx="22.9" cy="24.2" rx="0.2" ry="0.2"/>
				<ellipse id="XMLID_82_" class="st13" cx="23.5" cy="24.2" rx="0.2" ry="0.2"/>
			</g>
			<g id="XMLID_86_">
				<ellipse id="XMLID_109_" class="st13" cx="20.4" cy="26.5" rx="0.2" ry="0.2"/>
				<ellipse id="XMLID_106_" class="st13" cx="21" cy="26.5" rx="0.2" ry="0.2"/>
				<ellipse id="XMLID_98_" class="st13" cx="21.6" cy="26.5" rx="0.2" ry="0.2"/>
				<ellipse id="XMLID_94_" class="st13" cx="22.3" cy="26.5" rx="0.2" ry="0.2"/>
				<ellipse id="XMLID_91_" class="st13" cx="22.9" cy="26.5" rx="0.2" ry="0.2"/>
				<ellipse id="XMLID_87_" class="st13" cx="23.5" cy="26.5" rx="0.2" ry="0.2"/>
			</g>
		</g>
	</g>
	<g id="XMLID_45_" class="st1">
		<g>
			<path id="XMLID_72_" class="st3" d="M26.3,12.5c-0.1,0-0.1,0-0.2-0.1c-0.7-0.8-1.7-1.2-2.7-1.2c-1,0-2,0.4-2.7,1.2
				c-0.1,0.1-0.3,0.1-0.4,0c-0.1-0.1-0.1-0.3,0-0.4c0.8-0.9,1.9-1.4,3.1-1.4c1.2,0,2.3,0.5,3.1,1.4c0.1,0.1,0.1,0.3,0,0.4
				C26.5,12.5,26.4,12.5,26.3,12.5z"/>
			<path id="XMLID_71_" class="st3" d="M25.4,13.4c-0.1,0-0.1,0-0.2-0.1c-0.5-0.5-1.1-0.8-1.8-0.8c-0.7,0-1.3,0.3-1.8,0.8
				c-0.1,0.1-0.3,0.1-0.4,0c-0.1-0.1-0.1-0.3,0-0.4c0.6-0.6,1.4-1,2.2-1c0.8,0,1.6,0.3,2.2,1c0.1,0.1,0.1,0.3,0,0.4
				C25.6,13.3,25.5,13.4,25.4,13.4z"/>
			<path id="XMLID_70_" class="st3" d="M24.6,14.5c-0.1,0-0.1,0-0.2-0.1c-0.3-0.3-0.6-0.4-1-0.4c-0.4,0-0.7,0.2-1,0.4
				c-0.1,0.1-0.3,0.1-0.4,0c-0.1-0.1-0.1-0.3,0-0.4c0.4-0.4,0.8-0.6,1.3-0.6c0.5,0,1,0.2,1.3,0.6c0.1,0.1,0.1,0.3,0,0.4
				C24.7,14.5,24.6,14.5,24.6,14.5z"/>
			<ellipse id="XMLID_68_" class="st3" cx="23.4" cy="15.1" rx="0.3" ry="0.4"/>
		</g>
	</g>
</g>
<g id="tack_claim" class="st0">
	<g class="st1">
		<g>
			<path class="st14" d="M33.2,19L33.2,19c0-5.1-4.1-9.2-9.2-9.2c-5.1,0-9.2,4.1-9.2,9.2c0,0-0.7,6.5,9.2,19.3
				C33.9,25.4,33.2,19,33.2,19z"/>
			<path class="st15" d="M24,38.2C33.9,25.4,33.2,19,33.2,19c0-5.1-4.1-9.2-9.2-9.2V38.2z"/>
			<circle class="st16" cx="24" cy="19" r="8"/>
		</g>
	</g>
</g>
<g id="Canel" class="st0">
	<path class="st17" d="M31.7,13.3h-3.2v-3.1L31.7,13.3z M24.7,34.6l-9.9,0c-0.4,0-0.8-0.4-0.8-0.8v-23c0-0.4,0.4-0.7,0.8-0.7H27v4
		c0,0.4,0.4,0.7,0.8,0.7H32v12.1c-0.6-0.3-1.4-0.4-2.2-0.4c-3.1,0-5.7,2.5-5.7,5.7C24.1,33,24.3,33.8,24.7,34.6z M17.2,17.6
		c0,0.4,0.3,0.7,0.7,0.7h9.9c0.4,0,0.7-0.3,0.7-0.7c0-0.4-0.3-0.7-0.7-0.7H18C17.5,16.9,17.2,17.2,17.2,17.6z M17.2,20.7
		c0,0.4,0.3,0.7,0.7,0.7h9.9c0.4,0,0.7-0.3,0.7-0.7c0-0.4-0.3-0.7-0.7-0.7H18C17.5,20,17.2,20.3,17.2,20.7z M18,24.8h9.9
		c0.4,0,0.7-0.3,0.7-0.7s-0.3-0.7-0.7-0.7H18c-0.4,0-0.7,0.3-0.7,0.7S17.5,24.8,18,24.8z"/>
</g>
<g id="Canel_status" class="st0">
	<path class="st17" d="M31.7,13.3h-3.2v-3.1L31.7,13.3z M24.7,34.6l-9.9,0c-0.4,0-0.8-0.4-0.8-0.8v-23c0-0.4,0.4-0.7,0.8-0.7H27v4
		c0,0.4,0.4,0.7,0.8,0.7H32v12.1c-0.6-0.3-1.4-0.4-2.2-0.4c-3.1,0-5.7,2.5-5.7,5.7C24.1,33,24.3,33.8,24.7,34.6z M17.2,17.6
		c0,0.4,0.3,0.7,0.7,0.7h9.9c0.4,0,0.7-0.3,0.7-0.7c0-0.4-0.3-0.7-0.7-0.7H18C17.5,16.9,17.2,17.2,17.2,17.6z M17.2,20.7
		c0,0.4,0.3,0.7,0.7,0.7h9.9c0.4,0,0.7-0.3,0.7-0.7c0-0.4-0.3-0.7-0.7-0.7H18C17.5,20,17.2,20.3,17.2,20.7z M18,24.8h9.9
		c0.4,0,0.7-0.3,0.7-0.7s-0.3-0.7-0.7-0.7H18c-0.4,0-0.7,0.3-0.7,0.7S17.5,24.8,18,24.8z"/>
	<g class="st1">
		<path class="st2" d="M29.9,28.1c0.2,0,0.3,0,0.5,0c0.1,0,0.2,0,0.2,0c1.1,0,1.9,0.4,2.7,1.1c0.6,0.5,1,1.2,1.3,2
			c0.1,0.3,0.1,0.6,0.1,0.9c0,0,0,0.1,0,0.1c0,0.3,0,0.7,0,1c0,0.2,0,0.4-0.1,0.6c-0.1,0.6-0.3,1.1-0.7,1.5
			c-0.6,0.8-1.3,1.4-2.3,1.8c-0.3,0.1-0.6,0.1-0.9,0.2c0,0-0.1,0-0.1,0c-0.4,0-0.8,0-1.1,0c-0.1,0-0.2,0-0.3,0
			c-0.8-0.1-1.5-0.4-2.1-0.9c-0.7-0.6-1.2-1.3-1.5-2.2c-0.1-0.3-0.1-0.6-0.1-0.9c0-0.3,0-0.7,0-1c0.1-0.4,0-0.7,0.2-1.1
			c0.5-1.4,1.5-2.4,3-2.9c0.3-0.1,0.7-0.1,1-0.1C29.7,28.1,29.8,28.2,29.9,28.1z"/>
		<path class="st18" d="M30.6,28.1C30.6,28.1,30.6,28.1,30.6,28.1c-0.1,0-0.2,0.1-0.2,0C30.4,28.1,30.5,28.1,30.6,28.1z"/>
		<path class="st18" d="M29.7,28.2C29.7,28.1,29.7,28.1,29.7,28.2c0.1,0,0.2,0,0.3,0C29.8,28.2,29.8,28.2,29.7,28.2z"/>
		<path class="st19" d="M30.6,29.3c0.6,0.1,1.2,0.3,1.7,0.7c0.7,0.6,1.2,1.3,1.3,2.2c0,0,0,0.1,0,0.1c0,0.1,0,0.2,0,0.4
			c0,0,0,0.1,0,0.1c0,0.1,0,0.2,0,0.3c-0.1,0.3-0.1,0.5-0.2,0.8c-0.5,1.2-1.4,2-2.8,2.2c0,0-0.1,0-0.1,0c-0.1,0.1-0.2,0-0.4,0
			c0,0-0.1,0-0.1,0c-0.1,0-0.2,0-0.4,0c-0.6-0.1-1.1-0.3-1.6-0.6c-0.8-0.6-1.3-1.4-1.4-2.3c0,0,0-0.1,0-0.1c0-0.1,0-0.2,0-0.3
			c0-0.1,0-0.2,0-0.2c0-0.1,0-0.2,0-0.2c0.1-0.4,0.2-0.8,0.4-1.1c0.6-1,1.4-1.7,2.6-1.9c0,0,0.1,0,0.1,0c0.1-0.1,0.2,0,0.4,0
			c0,0,0.1,0,0.1,0C30.3,29.3,30.4,29.2,30.6,29.3z"/>
		<path class="st20" d="M33.6,32.7c0-0.1,0-0.2,0-0.4C33.7,32.5,33.6,32.6,33.6,32.7z"/>
		<path class="st21" d="M29.7,36.2c0.1,0,0.2,0,0.4,0C30,36.2,29.8,36.3,29.7,36.2z"/>
		<path class="st20" d="M30.6,29.3c-0.1,0-0.2,0-0.4,0C30.3,29.2,30.4,29.2,30.6,29.3z"/>
		<path class="st20" d="M26.7,32.8c0,0.1,0,0.2,0,0.3C26.6,33,26.6,32.9,26.7,32.8z"/>
		<path class="st20" d="M33.6,33.1c0-0.1,0-0.2,0-0.3C33.6,32.9,33.7,33,33.6,33.1z"/>
		<path class="st20" d="M30.1,29.3c-0.1,0-0.2,0-0.4,0C29.8,29.2,30,29.2,30.1,29.3z"/>
		<path class="st20" d="M30.2,36.2c0.1,0,0.2,0,0.4,0C30.4,36.3,30.3,36.2,30.2,36.2z"/>
		<path class="st20" d="M26.7,32.3c0,0.1,0,0.2,0,0.2C26.6,32.5,26.6,32.4,26.7,32.3z"/>
		<path class="st2" d="M29.8,35.6c-1.4-0.2-2.5-1.3-2.6-2.6c0-0.2,0-0.4,0-0.6c0.1-1.3,1.3-2.5,2.6-2.6c0.2,0,0.4,0,0.5,0
			c1.4,0.1,2.6,1.3,2.6,2.7c0,0.2,0,0.3,0,0.5c-0.1,1.3-1.3,2.5-2.6,2.6C30.2,35.6,30,35.6,29.8,35.6z"/>
		<path class="st20" d="M27.3,32.4c0.1,0.2,0.1,0.4,0,0.6C27.2,32.8,27.2,32.6,27.3,32.4z"/>
		<path class="st20" d="M29.8,35.6c0.2-0.1,0.4-0.1,0.6,0C30.2,35.6,30,35.6,29.8,35.6z"/>
		<path class="st20" d="M30.4,29.8c-0.2,0.1-0.4,0.1-0.5,0C30.1,29.8,30.2,29.8,30.4,29.8z"/>
		<path class="st2" d="M33,33c-0.1-0.2-0.1-0.3,0-0.5C33,32.7,33,32.8,33,33z"/>
		<path class="st19" d="M30.4,32.5c0.3,0.2,0.6,0.3,0.9,0.5c0.1,0.1,0.3,0.1,0.4,0.2c0.2,0.1,0.3,0.2,0.2,0.4
			c-0.1,0.2-0.2,0.2-0.4,0.1c-0.5-0.2-0.9-0.4-1.4-0.7c-0.1,0-0.2-0.1-0.2-0.2c0,0,0,0,0,0c0-0.6,0-1.3,0-1.9c0,0,0,0,0,0
			c0.2-0.2,0.3-0.2,0.5,0c0,0,0,0,0,0.1C30.4,31.4,30.4,32,30.4,32.5z"/>
		<path class="st22" d="M29.9,30.8c0,0.7,0,1.3,0,2c0,0,0-0.1,0-0.2c0-0.6,0-1.1,0-1.7C29.8,30.9,29.8,30.9,29.9,30.8z"/>
		<path class="st22" d="M30.4,32.5c0-0.5,0-1,0-1.5c0-0.1,0-0.2,0-0.2c0,0,0.1,0.1,0.1,0.2c0,0.5,0,1,0,1.4
			C30.4,32.5,30.4,32.5,30.4,32.5z"/>
	</g>
</g>
<g id="Layer_8">
	<path class="st14" d="M12.7,17c-0.4,0-0.7,0.3-0.7,0.7v16.7l3.2-3.2h14.3c0.4,0,0.7-0.3,0.7-0.7V17.6c0-0.4-0.3-0.7-0.7-0.7
		C29.5,17,12.7,17,12.7,17z"/>
	<path class="st16" d="M20.9,21.4H16c-0.2,0-0.4-0.2-0.4-0.4c0-0.2,0.2-0.4,0.4-0.4h4.8c0.2,0,0.4,0.2,0.4,0.4
		C21.3,21.2,21.1,21.4,20.9,21.4L20.9,21.4z"/>
	<path class="st16" d="M26.1,24.2H16c-0.2,0-0.4-0.2-0.4-0.4s0.2-0.4,0.4-0.4h10.1c0.2,0,0.4,0.2,0.4,0.4
		C26.5,24,26.4,24.2,26.1,24.2L26.1,24.2z"/>
	<path class="st16" d="M26.1,27.1H16c-0.2,0-0.4-0.2-0.4-0.4s0.2-0.4,0.4-0.4h10.1c0.2,0,0.4,0.2,0.4,0.4
		C26.5,26.9,26.4,27.1,26.1,27.1L26.1,27.1z"/>
	<path class="st23" d="M34.7,12.9H17.9c-0.4,0-0.7,0.3-0.7,0.7V17h12.3c0.4,0,0.7,0.3,0.7,0.7v9.4h4.5c0.4,0,0.7-0.3,0.7-0.7V13.6
		C35.4,13.2,35.1,12.9,34.7,12.9z"/>
</g>
<g id="Layer_6" class="st0">
	<g id="Page-1_1_" class="st1">
		<g id="menu_1_" transform="translate(-1135.000000, -388.000000)">
			<g id="ic_email_black_24px" transform="translate(1135.000000, 388.000000)">
				<g id="Page-1_2_" transform="translate(13.000000, 6.000000)">
					<path id="Fill-1" class="st2" d="M11.1,13.1V7.2l5.7,5.9H11.1z M5.9,18.5h8.3v-2.1H5.9V18.5z M5.9,22.8h8.3v-2.1H5.9V22.8z
						 M12.1,5.6H3.9c-1.1,0-2.1,1-2.1,2.1l0,17.2c0,1.2,0.9,2.1,2.1,2.1h12.4c1.1,0,2.1-1,2.1-2.1V12L12.1,5.6z"/>
					<g id="Group-5" transform="translate(3.304643, 0.000000)">
						<g id="Clip-4">
						</g>
						<defs>
							<filter id="Adobe_OpacityMaskFilter" filterUnits="userSpaceOnUse" x="1.9" y="-4.3" width="21.5" height="13.8">
								<feColorMatrix  type="matrix" values="1 0 0 0 0  0 1 0 0 0  0 0 1 0 0  0 0 0 1 0"/>
							</filter>
						</defs>
						<mask maskUnits="userSpaceOnUse" x="1.9" y="-4.3" width="21.5" height="13.8" id="mask-2_1_">
							<g class="st24">
								<polygon id="path-1_1_" class="st16" points="1.9,-4.3 23.4,-4.3 23.4,9.4 1.9,9.4 								"/>
							</g>
						</mask>
						<path id="Fill-3" class="st25" d="M15.8,9.4V6.3h7.6V4.1h-7.6V1l-4.4,4.2L15.8,9.4z M9.5-1.2H1.9V1h7.6v3.2l4.4-4.2L9.5-4.3
							V-1.2z"/>
					</g>
				</g>
			</g>
		</g>
	</g>
</g>
<g id="Layer_2">
</g>
</svg>
