<svg xmlns="http://www.w3.org/2000/svg" width="36" height="36"><style>.st0{display:none}.st1{display:inline}.st2{fill:none}</style><g id="Layer_1" class="st0"><g id="ic_bike" class="st1"><g id="bike-copy" transform="translate(5 12)"><path id="Shape" d="M25.8 6.7c-1.8 0-3.3.9-4.3 2.2l-1.4-.6v-.8l4.2-1.8 1.1-2.5h.6l2.5 3 .4.2.3-.1c.2-.2.2-.5.1-.7l-2-2.4h.3c.3 0 .5-.2.5-.5s-.2-.5-.5-.5h-.7l.6-.3c.3-.1.4-.5.3-.8l-.4-.8a.5.5 0 0 0-.5-.3l-6.8-.1-.4.2s-1.4 1.5-4 1.8L14.9.7a4.9 4.9 0 0 0-3.7-1.6l-.9.1-4.1.9h-.1C5.7.1 5 0 4.8-.4l-.1-.1 1.1-.2c.3-.1.5-.4.5-.7-.1-.3-.3-.5-.7-.5l-.9.2a8 8 0 0 1 1.1-2.4c.1-.2.1-.5-.1-.7-.1-.2-.2-.3-.4-.3h-.2c-.1.1-1.7.7-3.2 2.2C1-1.9 0-.4-.3 1.7l.3-.5s1.7 1.1.7 2.7H-.4l.1 1 .2.3 1.4 1.3c-4.5-.6-6.1 2.3-6.1 2.3-.3.5-.2 1 .4.7a5.2 5.2 0 0 0 4.6 7.6c2.9 0 5.2-2.3 5.2-5.2v-.6h6.3L9.2 9.4s-3 .3-5.1-2h.7c1.7 0 4.1.3 5.8 1.8h.1l5.6 3.8.3.1.4-.2 2.3-2.3 1.4.6v.7c0 2.9 2.3 5.2 5.2 5.2 2.9 0 5.2-2.3 5.2-5.2s-2.4-5.2-5.3-5.2zm-5.6-1.3L24 3.6l-.5 1.2-3.3 1.4v-.8zm-20 9.2a2.7 2.7 0 0 1-2.7-2.8C-2.5 10.3-1.3 9 .2 9h.2l-1.1 2.3 2.2 1.1 1.1-2.2c.2.6.4 1.1.4 1.7 0 1.5-1.3 2.7-2.8 2.7zm25.6 0c-1.4 0-2.5-1-2.7-2.4l2.1.9 1-2.2-2.3-1c.5-.5 1.2-.8 1.9-.8 1.5 0 2.7 1.2 2.7 2.8.1 1.5-1.2 2.7-2.7 2.7z"/></g></g></g><g id="Layer_2" class="st0"><g id="ic_car" class="st1"><g id="volkswagen-car-side-view-copy" transform="translate(3 14)"><path id="Shape_1_" d="M32.2 6.9h-1c-.2-1.2-.7-3-1.4-3.9a15.4 15.4 0 0 0-12.6-6.5c-3.4 0-5.5.3-6.7 1-.1.1-.5.4-1.7 2.9C7 .4 2.3.7 0 3.2a8.3 8.3 0 0 0-1.8 3.7h-.5c-.4 0-.7.4-.7.8s.3.8.8.8h.4v.1c0 .4.4.7.7.7h1c.6 1.3 1.9 2.3 3.5 2.3s2.9-.9 3.5-2.3h14.5c.6 1.3 1.9 2.3 3.5 2.3s2.9-.9 3.5-2.3H31c.4 0 .8-.3.8-.8h.7c.4 0 .8-.3.8-.8-.3-.4-.6-.8-1.1-.8zM3.3 10A2.4 2.4 0 0 1 1 7.7c0-1.2 1-2.3 2.3-2.3 1.3 0 2.3 1 2.3 2.3 0 1.2-1 2.3-2.3 2.3zm13.5-8.8c0 .2-.2.4-.4.4h-5.9l-.3-.2c-.1-.1-.1-.2 0-.4l1-1.8c.8-.5 2.4-.7 4.8-.7h.4c.2 0 .4.2.4.4v2.3zm.7 0V-1l.1-.3.3-.1c2.7.3 4.7 1.2 5.5 2.4.1.1.1.3 0 .4l-.3.2h-5.2c-.2-.1-.4-.2-.4-.4zm7.2 8.8c-1.3 0-2.3-1-2.3-2.3 0-1.2 1-2.3 2.3-2.3 1.3 0 2.3 1 2.3 2.3 0 1.2-1 2.3-2.3 2.3z"/></g></g></g><g id="Layer_3" class="st0"><g id="ic_CI" class="st1"><g id="noun_549658_cc" transform="translate(9 8)"><path id="Shape_2_" d="M-2.8 22.1l-.1-.3C-4.3 7.7 1.1 2.3 4.6 1.2c.6-.2.9 0 1.2.6l.5 1.1c.3 1.3.5 2 .6 3.5 0 .2 0 .4-.2.5-.5.7-1.2 1.3-1.9 1.7-.4.3-.1.9.2.7l.3-.2c1.2-.6 2-1.6 2.7-2.8l.1-.5v-7.2c0-.5.1-.8.5-1.1h.5c.3.4.4.8.4 1.3v5.8c0 1.6.8 2.5.9 2.6l2.1 2c.2.1.4.1.5-.1.1-.2.1-.3-.1-.5-.5-.5-1.7-1.5-1.9-1.9l-.1-.4c.2-1 .5-3.9 1.2-5.1.2-.4.6-.6 1-.5.6.1 2 1 3.8 3.7a21.6 21.6 0 0 1 3.6 17.2c-.1.6-.3.7-.8.6-3-.8-5.6-2.3-7.7-4.7-2.3-2.2-1.9-4.9-2-6.2l.1-.1.6 1c.2.3.5.3.7.1.2-.2.2-.4 0-.6L9 8.2l-.2-.3-.2.3-3.1 3.5-.1.4c.1.2.4.3.6.1l1.4-1.4-.1 3.3c0 1-.3 2-.9 2.9-2.2 3.6-8.8 6-9.2 5.1z"/></g></g></g><g id="Layer_4"><g id="ic_cyber-insurance"><g id="baseline-bug_report-24px" transform="translate(6 6)"><path id="Path" class="st2" d="M-5-5h34v34H-5z"/><path id="Shape_3_" d="M23.3 6.3h-4a7.7 7.7 0 0 0-2.6-2.8L19 1.2l-2-2-3 3.1c-.7-.2-1.3-.2-2-.2l-2 .2L6.9-.8l-2 2 2.3 2.3a10 10 0 0 0-2.6 2.8h-4v2.8h3l-.1 1.4V12H.7v2.8h2.8v1.4l.1 1.4h-3v2.8h4c1.5 2.5 4.2 4.2 7.4 4.2s5.9-1.7 7.4-4.2h4v-2.8h-3l.1-1.4v-1.4h2.8V12h-2.8v-1.4l-.1-1.4h3V6.3zm-8.5 11.4H9.2v-2.8h5.7v2.8zm0-5.7H9.2V9.2h5.7V12z"/></g></g></g><g id="Layer_5" class="st0"><g id="ic_goods-carrying" class="st1"><g id="Group" transform="translate(3.8 12)"><path id="Shape_6_" d="M14.7 8.8h-15c-.3 0-.6.3-.6.7v2.1c0 .4.3.7.6.7h1.4c.1 1.5 1.4 2.7 2.8 2.7s2.7-1.2 2.8-2.8h8c.3 0 .6-.3.6-.7v-2c.1-.4-.2-.7-.6-.7zM3.9 13.5c-.8 0-1.5-.7-1.5-1.6s.7-1.6 1.5-1.6 1.5.7 1.5 1.6-.7 1.6-1.5 1.6z"/><path id="Shape_5_" d="M28.3 6.1L25 5.7l-1.9-3.3A2.9 2.9 0 0 0 20.6 1H17c-.3 0-.6.3-.6.6v9.6c0 .3.3.6.6.6h4.5a2.8 2.8 0 0 0 2.8 2.6c1.5 0 2.7-1.1 2.8-2.6h.9c.7 0 1.3-.6 1.3-1.3V7.3c.1-.6-.4-1.1-1-1.2zm-9.8-3.3l.1-.1h2c.4 0 .7.2.9.5l1.2 2.1c.1.1 0 .2-.1.2h-4.1l-.1-.1V2.8zm6 10.3c-.8 0-1.5-.7-1.5-1.5s.7-1.5 1.5-1.5 1.5.7 1.5 1.5c-.1.8-.7 1.5-1.5 1.5z"/><path id="Shape_4_" d="M-.3 7.7h15c.3 0 .6-.3.6-.6v-9.4c0-.3-.3-.6-.6-.6h-15c-.3 0-.6.3-.6.6v9.4c0 .3.2.6.6.6z"/></g></g></g><g id="Layer_6" class="st0"><g id="ic_health" class="st1"><g id="medical-copy" transform="translate(9 10)"><path id="Shape_8_" d="M-4.9 8h9.5L6.1.8c.1-.4.4-.6.8-.6s.7.3.7.7L8.8 9l.8-2.5c.1-.3.4-.5.6-.5.3 0 .6.1.7.4l1.1 2 10.7-.1a10.1 10.1 0 0 0-1-10.5 7.7 7.7 0 0 0-6-2.7c-3.8 0-6 2.6-6.8 3.8A7.7 7.7 0 0 0 2.2-5c-2.5 0-4.6.9-6 2.7a9.7 9.7 0 0 0-1.9 7.7c.1.9.4 1.8.8 2.6z"/><path id="Shape_7_" d="M10.8 9.9c-.3 0-.5-.2-.7-.4l-.4-.9-1.2 4.1c-.1.3-.4.6-.7.6h-.1c-.4 0-.6-.3-.7-.7L5.8 5.2 5.1 9c-.1.4-.4.6-.8.6h-9.2c1.8 2.6 4.6 4.3 6.9 5.7 1 .7 2.1 1.3 2.8 1.9 2.7 2.3 2.9 3.4 2.9 3.4 0 .2.2.3.4.3s.4-.1.4-.3c0 0 .2-1.2 2.9-3.4.7-.6 1.8-1.2 2.9-1.9 2.2-1.3 4.9-3 6.8-5.5l-10.3.1z"/></g></g></g><g id="Layer_7" class="st0"><g id="ic_home" class="st1"><g id="ic_home_black_24px" transform="translate(8 7)"><path id="Shape_10_" d="M7.1 23.6v-9.3h6v9.3h7.5V11.2h4.5l-15-13.8-15 13.8h4.5v12.4z"/><path id="Shape_9_" class="st2" d="M-7-6.8h36.4v35.6H-7z"/></g></g></g><g id="Layer_8" class="st0"><g id="ic_passenger-carrying" class="st1"><g id="baseline-directions_bus-24px" transform="translate(4 7)"><path id="Path_1_" class="st2" d="M-3.6-5.6h35.2v35.2H-3.6z"/><path id="Shape_11_" d="M2.3 17.9c0 1.3.6 2.5 1.5 3.3v2.6c0 .8.7 1.5 1.5 1.5h1.5c.8 0 1.5-.7 1.5-1.5v-1.5h11.8v1.5c0 .8.7 1.5 1.5 1.5h1.5c.8 0 1.5-.7 1.5-1.5v-2.6c.9-.8 1.5-2 1.5-3.3V3.2c0-5.1-5.3-5.9-11.8-5.9s-12 .7-12 5.9v14.7zm5.1 1.4c-1.2 0-2.2-1-2.2-2.2s1-2.2 2.2-2.2 2.2 1 2.2 2.2-1 2.2-2.2 2.2zm13.2 0c-1.2 0-2.2-1-2.2-2.2s1-2.2 2.2-2.2 2.2 1 2.2 2.2-1 2.2-2.2 2.2zm2.2-8.8H5.2V3.2h17.6v7.3z"/></g></g></g><g id="Layer_9" class="st0"><g id="ic_personalaccident" class="st1"><g id="Group_1_" transform="translate(12 6)"><path id="Shape_13_" d="M5.2 7.5c2.7 0 4.8-2.1 4.8-4.8C10 0 7.8-2.1 5.2-2.1A4.7 4.7 0 0 0 .4 2.7c0 2.7 2.1 4.8 4.8 4.8z"/><path id="Shape_12_" d="M14.1 12.5l-.6-1.5-.5-.7c-.4-.5-.9-.8-1.4-1.1l-.9-.3-1.5-.3-.3.1a34.4 34.4 0 0 1-1.1 2.1c-.1.2-.3.2-.5 0l-.1-.1-.1-.1a3 3 0 0 0-.4-.8l-.2-.3c-.1-.2-1.6-.2-1.7 0l-.2.3-.4.6-.2.2-.1.1c-.2.4-.6.3-.8-.1l-.8-1.8-.1-.1-.2-.1c-.7.2-1.5.3-2.2.6-.6.3-1.1.7-1.5 1.2l-.5.7a4 4 0 0 0-.6 1.5c-.2.3-.2.6-.2 1v5.9c0 2.3-.4 6.6 2.1 6.6h13.2c2.8 0 2.8-3.7 2.8-4.3-.1-2-.9-8.9-1-9.3zm-2.4 11.8H4.2C3 24.3 2 23.2 2 21.8c0-1.3.9-2.4 2-2.4l-1.4-3.8L.5 9.8h1l2.8 4 3.1 4.4-.4 1.2-.4 1.1-1.9-.1h-.4l-.7.4c-.2.2-.3.5-.3.9l.1.6c.1.4.3.7.6.9l.7.2h1.7c.6-1.2 1.1-2.6 1.5-4 .5-1.6.8-3.3 1.1-4.7l.4-2.7.2-1.7v-.2h.4v.1l.4 1.3.4 1.8c.5 3 1.1 7.4 1.4 10.6v.2l-.5.2z"/></g></g></g><g id="Layer_10" class="st0"><g id="ic_third-party-vehicle" class="st1"><g id="Group_2_" transform="translate(2 7)"><path id="Shape_18_" d="M32.1 14.6l-.2-1c0-.2-.2-.2-.3-.2h-.2l-.6-4c-.1-.5-.6-.9-1.1-.9h-.2l-.5.1-2.1-5.8-.3-.2-9.9 2.1-.2.3.5 6.1-.5.1-.6.3c0-.6-.5-1-1.1-1h-.5l-.8-6.1c0-.1-.1-.2-.3-.2H2.9l-.3.2-.8 6.1h-.5c-.6 0-1.1.5-1.1 1.1l.2 4H.2c-.2 0-.3.1-.3.3v1c0 .2.1.3.3.3h1.2v1.4c0 .6.5 1.1 1.1 1.1h.7c.6 0 1.1-.5 1.1-1.1v-1.4h7.2v1.4c0 .6.5 1.1 1.1 1.1h.7c.6 0 1.1-.5 1.1-1.1v-1.4h1.2c.2 0 .3-.1.3-.3v-1c0-.2-.1-.3-.3-.3h-.2l.1-2.4.9 3.2h-.2l-.2.1c0 .1-.1.1 0 .2l.2 1c0 .1.1.2.3.2h.1l1.2-.3.3 1.3c.1.5.6.9 1.1.9h.2l.7-.2c.3-.1.5-.2.7-.5s.2-.6.2-.8l-.3-1.3 7-1.5.3 1.3c.1.5.6.9 1.1.9h.2l.7-.2c.6-.1 1-.7.9-1.3l-.3-1.3 1.2-.3.2-.1.1.1zm-28.6-9c0-.1.1-.2.3-.2h8.4l.3.2.7 5H2.9l.6-5zm-.3 9.5c-.7 0-1.3-.6-1.3-1.3 0-.7.6-1.3 1.3-1.3s1.3.6 1.3 1.3c0 .8-.5 1.3-1.3 1.3zm9.5 0c-.7 0-1.3-.6-1.3-1.3 0-.7.6-1.3 1.3-1.3.7 0 1.3.6 1.3 1.3 0 .8-.6 1.3-1.3 1.3zm6.5.3h-.3c-.6 0-1.2-.4-1.3-1-.2-.7.3-1.4 1-1.6h.3c.6 0 1.2.4 1.3 1 .1.7-.3 1.4-1 1.6zM17.8 11l-.4-5 .2-.3 8.2-1.8c.1 0 .3 0 .3.2l1.7 4.8-10 2.1zm11.5 1.8c-.2.3-.5.5-.8.6h-.3c-.6 0-1.2-.4-1.3-1-.1-.3 0-.7.2-1 .2-.3.5-.5.8-.6h.3c.6 0 1.2.4 1.3 1 0 .3 0 .7-.2 1z"/><path id="Shape_17_" d="M11.1 2.3l3 1.3h.2l.4-.2c.1-.2 0-.5-.2-.6l-3-1.3a.5.5 0 0 0-.6.2c-.1.3 0 .5.2.6z"/><path id="Shape_16_" d="M15.6 2.8c.2 0 .4-.2.4-.4l-.2-3.8c0-.2-.2-.4-.4-.4s-.4.2-.4.4l.2 3.8c0 .2.2.4.4.4z"/><path id="Shape_15_" d="M16.6 19.2c-.1-.2-.4-.2-.6-.1l-3.4 2.5c-.2.1-.2.4-.1.6l.3.2.3-.1 3.4-2.5c.2-.2.2-.5.1-.6z"/><path id="Shape_14_" d="M17.5 20.6c.1-.2.4-.2.6-.1l3.4 2.5c.2.1.2.4.1.6l-.3.2-.3-.1-3.4-2.5c-.2-.2-.2-.4-.1-.6z"/></g></g></g><g id="Layer_11" class="st0"><g id="ic_tractor" class="st1"><g id="noun_22947_cc" transform="translate(3 9)"><path id="Shape_19_" d="M23.2 8.8c-2 0-3.6 1.6-3.6 3.6s1.6 3.6 3.6 3.6 3.6-1.6 3.6-3.6-1.6-3.6-3.6-3.6zM4.1 14.2c-.8 0-1.4.6-1.4 1.4 0 .8.6 1.4 1.4 1.4s1.4-.6 1.4-1.4c0-.8-.6-1.4-1.4-1.4zM24.5.1h1.4v5.4h3.2V7l-1.3 1a6.4 6.4 0 0 1-4.6 10.8 6.3 6.3 0 0 1-6.4-6.4H9.9l-.8 1.4H6.7c.4.5.6 1.1.6 1.8 0 1.8-1.4 3.2-3.2 3.2S.9 17.4.9 15.6c0-1 .5-1.9 1.2-2.5L.5 7.5.4 7c0-.8.6-1.5 1.3-1.7l.5-.1h10l.5-.9h3.6l-2.7 5.4h3.9V6.5c0-.5.4-.9.9-.9h6.1V.1z"/></g></g></g><g id="Layer_12" class="st0"><g id="ic_travel" class="st1"><g id="suitcase-with-white-details-copy" transform="translate(10 10)"><path id="Shape_22_" d="M-5.1-.7a5 5 0 0 0-1 3v15.6c0 1.1.3 2.1 1 3 .6.8 1.4 1.2 2.3 1.2h.9v-24h-.9c-.9 0-1.7.4-2.3 1.2z"/><path id="Shape_21_" d="M14.6-4.3c0-.5-.2-.9-.5-1.2-.3-.3-.7-.5-1.2-.5H3c-.5 0-.9.2-1.2.5-.3.3-.4.7-.4 1.2v2.9H-.8V22h17.7V-1.4h-2.2l-.1-2.9zm-2.2 2.9H3.6v-2.3h8.9v2.3z"/><path id="Shape_20_" d="M21.1-.7a2.8 2.8 0 0 0-2.3-1.2h-.9v24h.9c.9 0 1.6-.4 2.3-1.2a5 5 0 0 0 1-3V2.3c0-1.2-.4-2.1-1-3z"/></g></g></g></svg>