<?xml version="1.0" encoding="utf-8"?>
<!-- Generator: Adobe Illustrator 21.1.0, SVG Export Plug-In . SVG Version: 6.00 Build 0)  -->
<svg version="1.1" xmlns="http://www.w3.org/2000/svg" xmlns:xlink="http://www.w3.org/1999/xlink" x="0px" y="0px" width="36px"
	 height="36px" viewBox="0 0 36 36" style="enable-background:new 0 0 36 36;" xml:space="preserve">
<style type="text/css">
	.st0{display:none;}
	.st1{display:inline;}
	.st2{fill:none;}
</style>
<g id="Layer_1" class="st0">
	<g id="ic_bike" class="st1">
		<g id="bike-copy" transform="translate(5.000000, 12.000000)">
			<path id="Shape" d="M25.8,6.7c-1.8,0-3.3,0.9-4.3,2.2l-1.4-0.6V7.5l4.2-1.8l1.1-2.5H26l2.5,3c0.1,0.1,0.2,0.2,0.4,0.2
				c0.1,0,0.2,0,0.3-0.1c0.2-0.2,0.2-0.5,0.1-0.7l-2-2.4h0.3c0.3,0,0.5-0.2,0.5-0.5s-0.2-0.5-0.5-0.5h-0.7l0.6-0.3
				c0.3-0.1,0.4-0.5,0.3-0.8l-0.4-0.8C27.3,0.1,27.1,0,26.9,0l-6.8-0.1c0,0,0,0,0,0c-0.2,0-0.3,0.1-0.4,0.2c0,0-1.4,1.5-4,1.8
				c-0.2-0.3-0.4-0.7-0.8-1.2c-1-1.1-2.3-1.6-3.7-1.6c-0.3,0-0.6,0-0.9,0.1c0,0,0,0,0,0c-0.1,0-1.8,0.3-4.1,0.9c0,0-0.1,0-0.1,0
				C5.7,0.1,5,0,4.8-0.4c0,0,0-0.1-0.1-0.1l1.1-0.2c0.3-0.1,0.5-0.4,0.5-0.7C6.2-1.7,6-1.9,5.6-1.9L4.7-1.7c0.1-0.6,0.5-1.4,1.1-2.4
				c0.1-0.2,0.1-0.5-0.1-0.7C5.6-5,5.5-5.1,5.3-5.1c-0.1,0-0.1,0-0.2,0C5-5,3.4-4.4,1.9-2.9C1-1.9,0-0.4-0.3,1.7
				C-0.2,1.5-0.1,1.4,0,1.2c0,0,1.7,1.1,0.7,2.7h-1.1c0,0.3,0.1,0.6,0.1,1c0,0.1,0.1,0.3,0.2,0.3l1.4,1.3c-4.5-0.6-6.1,2.3-6.1,2.3
				C-5.1,9.3-5,9.8-4.4,9.5C-4.8,10.2-5,11-5,11.9c0,2.9,2.3,5.2,5.2,5.2c2.9,0,5.2-2.3,5.2-5.2c0-0.2,0-0.4,0-0.6h6.3L9.2,9.4
				c0,0-3,0.3-5.1-2c0.2,0,0.5,0,0.7,0c1.7,0,4.1,0.3,5.8,1.8c0,0,0,0,0.1,0l5.6,3.8c0.1,0.1,0.2,0.1,0.3,0.1c0.2,0,0.3-0.1,0.4-0.2
				l2.3-2.3l1.4,0.6c0,0.2,0,0.4,0,0.7c0,2.9,2.3,5.2,5.2,5.2c2.9,0,5.2-2.3,5.2-5.2S28.7,6.7,25.8,6.7z M20.2,5.4L24,3.6l-0.5,1.2
				l-3.3,1.4L20.2,5.4L20.2,5.4z M0.2,14.6c-1.5,0-2.7-1.2-2.7-2.8c0-1.5,1.2-2.8,2.7-2.8c0.1,0,0.1,0,0.2,0l-1.1,2.3l2.2,1.1
				l1.1-2.2C2.8,10.8,3,11.3,3,11.9C3,13.4,1.7,14.6,0.2,14.6z M25.8,14.6c-1.4,0-2.5-1-2.7-2.4l2.1,0.9l1-2.2l-2.3-1
				c0.5-0.5,1.2-0.8,1.9-0.8c1.5,0,2.7,1.2,2.7,2.8C28.6,13.4,27.3,14.6,25.8,14.6z"/>
		</g>
	</g>
</g>
<g id="Layer_2" class="st0">
	<g id="ic_car" class="st1">
		<g id="volkswagen-car-side-view-copy" transform="translate(3.000000, 14.000000)">
			<path id="Shape_1_" d="M32.2,6.9h-1c-0.2-1.2-0.7-3-1.4-3.9c-3.3-4.2-7.4-6.5-12.6-6.5c-3.4,0-5.5,0.3-6.7,1
				C10.4-2.4,10-2.1,8.8,0.4C7,0.4,2.3,0.7,0,3.2c-1.1,1.3-1.6,2.7-1.8,3.7h-0.5C-2.7,6.9-3,7.3-3,7.7s0.3,0.8,0.8,0.8h0.4
				c0,0,0,0.1,0,0.1c0,0.4,0.4,0.7,0.7,0.7h1c0.6,1.3,1.9,2.3,3.5,2.3s2.9-0.9,3.5-2.3h14.5c0.6,1.3,1.9,2.3,3.5,2.3
				s2.9-0.9,3.5-2.3h2.6c0,0,0,0,0,0c0.4,0,0.8-0.3,0.8-0.8h0.7c0.4,0,0.8-0.3,0.8-0.8C33,7.3,32.7,6.9,32.2,6.9z M3.3,10
				C2.1,10,1,8.9,1,7.7c0-1.2,1-2.3,2.3-2.3c1.3,0,2.3,1,2.3,2.3C5.6,8.9,4.6,10,3.3,10z M16.8,1.2c0,0.2-0.2,0.4-0.4,0.4h-5.9
				c-0.1,0-0.2-0.1-0.3-0.2c-0.1-0.1-0.1-0.2,0-0.4c0.3-0.6,0.8-1.6,1-1.8C12-1.3,13.6-1.5,16-1.5c0.1,0,0.3,0,0.4,0
				c0.2,0,0.4,0.2,0.4,0.4L16.8,1.2z M17.5,1.2V-1c0-0.1,0-0.2,0.1-0.3c0.1-0.1,0.2-0.1,0.3-0.1c2.7,0.3,4.7,1.2,5.5,2.4
				c0.1,0.1,0.1,0.3,0,0.4c-0.1,0.1-0.2,0.2-0.3,0.2h-5.2C17.7,1.5,17.5,1.4,17.5,1.2z M24.7,10c-1.3,0-2.3-1-2.3-2.3
				c0-1.2,1-2.3,2.3-2.3c1.3,0,2.3,1,2.3,2.3C27,8.9,26,10,24.7,10z"/>
		</g>
	</g>
</g>
<g id="Layer_3" class="st0">
	<g id="ic_CI" class="st1">
		<g id="noun_549658_cc" transform="translate(9.000000, 8.000000)">
			<path id="Shape_2_" d="M-2.8,22.1c-0.1-0.2,0-0.2-0.1-0.3C-4.3,7.7,1.1,2.3,4.6,1.2c0.6-0.2,0.9,0,1.2,0.6C6,2.1,6.2,2.5,6.3,2.9
				c0.3,1.3,0.5,2,0.6,3.5c0,0.2,0,0.4-0.2,0.5C6.2,7.6,5.5,8.2,4.8,8.6C4.4,8.9,4.7,9.5,5,9.3c0.3-0.2,0.2-0.1,0.3-0.2
				C6.5,8.5,7.3,7.5,8,6.3C8.1,6.2,8.1,6,8.1,5.8c0-2.4,0-4.8,0-7.2c0-0.5,0.1-0.8,0.5-1.1c0.2,0,0.3,0,0.5,0
				c0.3,0.4,0.4,0.8,0.4,1.3c0,1.9,0,4.2,0,5.8s0.8,2.5,0.9,2.6c0.2,0.3,1.5,1.5,2.1,2c0.2,0.1,0.4,0.1,0.5-0.1
				c0.1-0.2,0.1-0.3-0.1-0.5c-0.5-0.5-1.7-1.5-1.9-1.9c-0.1-0.1-0.1-0.2-0.1-0.4c0.2-1,0.5-3.9,1.2-5.1c0.2-0.4,0.6-0.6,1-0.5
				c0.6,0.1,2,1,3.8,3.7c5.8,8.1,3.8,16.6,3.6,17.2c-0.1,0.6-0.3,0.7-0.8,0.6c-3-0.8-5.6-2.3-7.7-4.7c-2.3-2.2-1.9-4.9-2-6.2
				c0,0,0,0,0.1-0.1c0.2,0.3,0.4,0.7,0.6,1c0.2,0.3,0.5,0.3,0.7,0.1c0.2-0.2,0.2-0.4,0-0.6C11.1,11.2,9.7,9.2,9,8.2
				C8.9,8.1,8.9,8,8.8,7.9C8.7,8,8.7,8.1,8.6,8.2C8.1,8.9,6.2,11,5.5,11.7c-0.1,0.1-0.1,0.2-0.1,0.4l0,0c0.1,0.2,0.4,0.3,0.6,0.1
				c0.4-0.4,1.1-1.1,1.4-1.4c0,0.4-0.1,2.3-0.1,3.3c0,1-0.3,2-0.9,2.9C4.2,20.6-2.4,23-2.8,22.1z"/>
		</g>
	</g>
</g>
<g id="Layer_4" class="st0">
	<g id="ic_cyber-insurance" class="st1">
		<g id="baseline-bug_report-24px" transform="translate(6.000000, 6.000000)">
			<polygon id="Path" class="st2" points="-5,-5 29,-5 29,29 -5,29 			"/>
			<path id="Shape_3_" d="M23.3,6.3h-4c-0.6-1.1-1.5-2.1-2.6-2.8l2.3-2.3l-2-2L14,2.3c-0.7-0.2-1.3-0.2-2-0.2s-1.4,0.1-2,0.2
				L6.9-0.8l-2,2l2.3,2.3c-1,0.7-1.9,1.7-2.6,2.8h-4v2.8h3c-0.1,0.5-0.1,0.9-0.1,1.4V12H0.7v2.8h2.8v1.4c0,0.5,0.1,0.9,0.1,1.4h-3
				v2.8h4c1.5,2.5,4.2,4.2,7.4,4.2s5.9-1.7,7.4-4.2h4v-2.8h-3c0.1-0.5,0.1-0.9,0.1-1.4v-1.4h2.8V12h-2.8v-1.4c0-0.5-0.1-0.9-0.1-1.4
				h3V6.3z M14.8,17.7H9.2v-2.8h5.7V17.7z M14.8,12H9.2V9.2h5.7V12z"/>
		</g>
	</g>
</g>
<g id="Layer_5" class="st0">
	<g id="ic_goods-carrying" class="st1">
		<g id="Group" transform="translate(3.750000, 12.000000)">
			<path id="Shape_6_" d="M14.8,9h-16c-0.4,0-0.7,0.3-0.7,0.7v2.2c0,0.4,0.3,0.7,0.7,0.7h1.5c0.1,1.7,1.4,2.9,3,2.9s2.9-1.3,3-2.9
				h8.5c0.4,0,0.7-0.3,0.7-0.7V9.7C15.4,9.3,15.1,9,14.8,9z M3.3,14c-0.9,0-1.6-0.8-1.6-1.7s0.7-1.7,1.6-1.7s1.6,0.8,1.6,1.7
				S4.1,14,3.3,14z"/>
			<path id="Shape_5_" d="M29.2,6.1l-3.5-0.5l-2-3.5c-0.5-0.9-1.5-1.5-2.6-1.5h-3.8c-0.4,0-0.7,0.3-0.7,0.7v10.2
				c0,0.4,0.3,0.7,0.7,0.7h4.8c0.1,1.5,1.4,2.8,3,2.8s2.9-1.2,3-2.8H29c0.7,0,1.3-0.6,1.3-1.3V7.4C30.3,6.7,29.8,6.2,29.2,6.1z
				 M18.8,2.6c0-0.1,0.1-0.1,0.1-0.1h2.2c0.4,0,0.8,0.2,1,0.6l1.3,2.2c0.1,0.1,0,0.2-0.1,0.2h-4.3c-0.1,0-0.1-0.1-0.1-0.1V2.6z
				 M25.1,13.5c-0.9,0-1.6-0.7-1.6-1.6c0-0.9,0.7-1.6,1.6-1.6c0.9,0,1.6,0.7,1.6,1.6C26.7,12.8,26,13.5,25.1,13.5z"/>
			<path id="Shape_4_" d="M-1.2,7.8h16c0.4,0,0.7-0.3,0.7-0.7v-10c0-0.4-0.3-0.7-0.7-0.7h-16c-0.4,0-0.7,0.3-0.7,0.7v10
				C-1.9,7.5-1.6,7.8-1.2,7.8z"/>
		</g>
	</g>
</g>
<g id="Layer_6" class="st0">
	<g id="ic_health" class="st1">
		<g id="medical-copy" transform="translate(9.000000, 10.000000)">
			<path id="Shape_8_" d="M-4.2,8h9.1l1.4-6.9C6.3,0.8,6.7,0.5,7,0.5c0.3,0,0.6,0.3,0.7,0.6l1.2,7.7l0.7-2.4C9.7,6.2,10,6,10.2,6
				c0.3,0,0.6,0.1,0.7,0.4l1,1.9l10.2-0.1c0.4-0.8,0.7-1.7,0.9-2.7c0.4-2.7-0.3-5.5-1.8-7.3c-1.4-1.7-3.4-2.5-5.7-2.5
				c-3.7,0-5.7,2.5-6.5,3.6C8.3-1.9,6.2-4.4,2.5-4.4c-2.3,0-4.3,0.9-5.7,2.5C-4.8,0-5.4,2.8-5,5.5C-4.9,6.4-4.6,7.2-4.2,8z"/>
			<path id="Shape_7_" d="M10.7,9.8c-0.3,0-0.5-0.2-0.6-0.4L9.7,8.6l-1.2,3.9C8.4,12.8,8.1,13,7.8,13c0,0,0,0-0.1,0
				c-0.3,0-0.6-0.3-0.7-0.6L6,5.3L5.3,8.9C5.2,9.3,4.9,9.5,4.5,9.5h-8.8c1.7,2.4,4.4,4.1,6.5,5.4c1,0.6,2,1.2,2.7,1.8
				C7.6,18.9,7.8,20,7.8,20c0,0.2,0.2,0.3,0.4,0.3s0.3-0.1,0.4-0.3c0,0,0.2-1.1,2.8-3.3c0.7-0.6,1.7-1.2,2.7-1.8
				c2.1-1.3,4.7-2.9,6.4-5.2L10.7,9.8z"/>
		</g>
	</g>
</g>
<g id="Layer_7">
	<g id="ic_home">
		<g id="ic_home_black_24px" transform="translate(8.000000, 7.000000)">
			<polygon id="Shape_10_" points="7.1,23.6 7.1,14.3 13.1,14.3 13.1,23.6 20.6,23.6 20.6,11.2 25.1,11.2 10.1,-2.6 -4.9,11.2 
				-0.4,11.2 -0.4,23.6 			"/>
			<polygon id="Shape_9_" class="st2" points="-7,-6.8 29.4,-6.8 29.4,28.8 -7,28.8 			"/>
		</g>
	</g>
</g>
<g id="Layer_8" class="st0">
	<g id="ic_passenger-carrying" class="st1">
		<g id="baseline-directions_bus-24px" transform="translate(4.000000, 7.000000)">
			<polygon id="Path_1_" class="st2" points="-2.9,-4.9 30.9,-4.9 30.9,28.9 -2.9,28.9 			"/>
			<path id="Shape_11_" d="M2.8,17.6c0,1.2,0.5,2.3,1.4,3.1v2.5c0,0.8,0.6,1.4,1.4,1.4H7c0.8,0,1.4-0.6,1.4-1.4v-1.4h11.2v1.4
				c0,0.8,0.6,1.4,1.4,1.4h1.4c0.8,0,1.4-0.6,1.4-1.4v-2.5c0.9-0.8,1.4-1.9,1.4-3.1V3.6c0-4.9-5-5.6-11.2-5.6S2.8-1.4,2.8,3.6V17.6z
				 M7.7,19c-1.2,0-2.1-0.9-2.1-2.1s0.9-2.1,2.1-2.1s2.1,0.9,2.1,2.1S8.8,19,7.7,19z M20.3,19c-1.2,0-2.1-0.9-2.1-2.1
				s0.9-2.1,2.1-2.1s2.1,0.9,2.1,2.1S21.5,19,20.3,19z M22.4,10.6H5.6v-7h16.9V10.6z"/>
		</g>
	</g>
</g>
<g id="Layer_9" class="st0">
	<g id="ic_personalaccident" class="st1">
		<g id="Group_1_" transform="translate(12.000000, 6.000000)">
			<path id="Shape_13_" d="M5.2,7.5c2.7,0,4.8-2.1,4.8-4.8C10,0,7.8-2.1,5.2-2.1c-2.7,0-4.9,2.2-4.8,4.8C0.4,5.4,2.5,7.5,5.2,7.5z"
				/>
			<path id="Shape_12_" d="M14.1,12.5c-0.1-0.5-0.3-1-0.6-1.5c-0.1-0.2-0.3-0.4-0.5-0.7c-0.4-0.5-0.9-0.8-1.4-1.1
				C11.3,9.1,11,9,10.7,8.9c0,0-1.3-0.3-1.5-0.3c-0.1,0-0.2,0-0.3,0.1C8.6,9.4,8.3,10,8,10.6c0,0.1-0.1,0.2-0.2,0.2
				C7.7,11,7.5,11,7.3,10.8c0,0-0.1-0.1-0.1-0.1c0,0,0-0.1-0.1-0.1C7,10.3,6.9,10.1,6.7,9.8C6.6,9.7,6.6,9.6,6.5,9.5
				c-0.1-0.2-1.6-0.2-1.7,0C4.7,9.6,4.6,9.7,4.6,9.8c-0.1,0.2-0.3,0.4-0.4,0.6c-0.1,0.1-0.1,0.2-0.2,0.2c0,0,0,0.1-0.1,0.1
				c-0.2,0.4-0.6,0.3-0.8-0.1c-0.3-0.6-0.5-1.2-0.8-1.8c0,0,0-0.1-0.1-0.1c0-0.1-0.1-0.1-0.2-0.1C1.3,8.8,0.5,8.9-0.2,9.2
				c-0.6,0.3-1.1,0.7-1.5,1.2c-0.2,0.2-0.3,0.4-0.5,0.7c-0.3,0.4-0.5,1-0.6,1.5C-3,12.9-3,13.2-3,13.6c0,1.4,0,2.9,0,4.3
				c0,0.5,0,1.1,0,1.6c0,2.3-0.4,6.6,2.1,6.6s11.6,0,13.2,0c2.8,0,2.8-3.7,2.8-4.3C15,19.8,14.2,12.9,14.1,12.5z M11.7,24.3H4.2
				C3,24.3,2,23.2,2,21.8c0-1.3,0.9-2.4,2-2.4l0,0l-1.4-3.8L0.5,9.8h1l2.8,4l3.1,4.4l-0.4,1.2l-0.4,1.1l-1.9-0.1c-0.1,0-0.2,0-0.4,0
				c-0.3,0.1-0.5,0.2-0.7,0.4c-0.2,0.2-0.3,0.5-0.3,0.9c0,0.2,0,0.4,0.1,0.6C3.5,22.7,3.7,23,4,23.2c0.2,0.1,0.4,0.2,0.7,0.2h1.7
				c0.6-1.2,1.1-2.6,1.5-4c0.5-1.6,0.8-3.3,1.1-4.7c0.2-1,0.3-1.9,0.4-2.7c0.1-0.6,0.1-1.1,0.2-1.7l0-0.2H10l0,0.1
				c0.1,0.3,0.2,0.7,0.4,1.3c0.1,0.5,0.2,1.1,0.4,1.8c0.5,3,1.1,7.4,1.4,10.6l0,0.2L11.7,24.3z"/>
		</g>
	</g>
</g>
<g id="Layer_10" class="st0">
	<g id="ic_third-party-vehicle" class="st1">
		<g id="Group_2_" transform="translate(2.000000, 7.000000)">
			<path id="Shape_18_" d="M32.1,14.6l-0.2-1c0-0.2-0.2-0.2-0.3-0.2l-0.2,0l-0.6-4c0,0,0,0,0,0c-0.1-0.5-0.6-0.9-1.1-0.9
				c-0.1,0-0.2,0-0.2,0l-0.5,0.1l-2.1-5.8c0-0.1-0.2-0.2-0.3-0.2l-9.9,2.1c-0.1,0-0.2,0.2-0.2,0.3l0.5,6.1l-0.5,0.1
				c-0.2,0-0.4,0.2-0.6,0.3c0-0.6-0.5-1-1.1-1h-0.5l-0.8-6.1c0-0.1-0.1-0.2-0.3-0.2H2.9c-0.1,0-0.3,0.1-0.3,0.2l-0.8,6.1H1.3
				c-0.6,0-1.1,0.5-1.1,1.1c0,0,0,0,0,0l0.2,4H0.2c-0.2,0-0.3,0.1-0.3,0.3v1c0,0.2,0.1,0.3,0.3,0.3h1.2v1.4c0,0.6,0.5,1.1,1.1,1.1
				h0.7c0.6,0,1.1-0.5,1.1-1.1v-1.4h7.2v1.4c0,0.6,0.5,1.1,1.1,1.1h0.7c0.6,0,1.1-0.5,1.1-1.1v-1.4h1.2c0.2,0,0.3-0.1,0.3-0.3v-1
				c0-0.2-0.1-0.3-0.3-0.3h-0.2l0.1-2.4l0.9,3.2l-0.2,0c-0.1,0-0.1,0.1-0.2,0.1c0,0.1-0.1,0.1,0,0.2l0.2,1c0,0.1,0.1,0.2,0.3,0.2
				c0,0,0,0,0.1,0l1.2-0.3l0.3,1.3c0.1,0.5,0.6,0.9,1.1,0.9c0.1,0,0.2,0,0.2,0l0.7-0.2c0.3-0.1,0.5-0.2,0.7-0.5s0.2-0.6,0.2-0.8
				l-0.3-1.3l7-1.5l0.3,1.3c0.1,0.5,0.6,0.9,1.1,0.9c0.1,0,0.2,0,0.2,0l0.7-0.2c0.6-0.1,1-0.7,0.9-1.3l-0.3-1.3l1.2-0.3
				c0.1,0,0.1-0.1,0.2-0.1C32.1,14.7,32.1,14.6,32.1,14.6z M3.5,5.6c0-0.1,0.1-0.2,0.3-0.2h8.4c0.1,0,0.3,0.1,0.3,0.2l0.7,5H2.9
				L3.5,5.6z M3.2,15.1c-0.7,0-1.3-0.6-1.3-1.3c0-0.7,0.6-1.3,1.3-1.3s1.3,0.6,1.3,1.3C4.5,14.6,4,15.1,3.2,15.1z M12.7,15.1
				c-0.7,0-1.3-0.6-1.3-1.3c0-0.7,0.6-1.3,1.3-1.3c0.7,0,1.3,0.6,1.3,1.3C14,14.6,13.4,15.1,12.7,15.1z M19.2,15.4
				c-0.1,0-0.2,0-0.3,0c-0.6,0-1.2-0.4-1.3-1c-0.2-0.7,0.3-1.4,1-1.6c0.1,0,0.2,0,0.3,0c0.6,0,1.2,0.4,1.3,1
				C20.3,14.5,19.9,15.2,19.2,15.4z M17.8,11L17.4,6c0-0.1,0.1-0.3,0.2-0.3l8.2-1.8c0.1,0,0.3,0,0.3,0.2l1.7,4.8L17.8,11z
				 M29.3,12.8c-0.2,0.3-0.5,0.5-0.8,0.6c-0.1,0-0.2,0-0.3,0c-0.6,0-1.2-0.4-1.3-1c-0.1-0.3,0-0.7,0.2-1c0.2-0.3,0.5-0.5,0.8-0.6
				c0.1,0,0.2,0,0.3,0c0.6,0,1.2,0.4,1.3,1C29.5,12.1,29.5,12.5,29.3,12.8z"/>
			<path id="Shape_17_" d="M11.1,2.3l3,1.3c0.1,0,0.1,0,0.2,0c0.2,0,0.3-0.1,0.4-0.2c0.1-0.2,0-0.5-0.2-0.6l-3-1.3
				c-0.2-0.1-0.5,0-0.6,0.2C10.8,2,10.9,2.2,11.1,2.3z"/>
			<path id="Shape_16_" d="M15.6,2.8C15.6,2.8,15.6,2.8,15.6,2.8c0.2,0,0.4-0.2,0.4-0.4l-0.2-3.8c0-0.2-0.2-0.4-0.4-0.4
				c-0.2,0-0.4,0.2-0.4,0.4l0.2,3.8C15.2,2.6,15.4,2.8,15.6,2.8z"/>
			<path id="Shape_15_" d="M16.6,19.2c-0.1-0.2-0.4-0.2-0.6-0.1l-3.4,2.5c-0.2,0.1-0.2,0.4-0.1,0.6c0.1,0.1,0.2,0.2,0.3,0.2
				c0.1,0,0.2,0,0.3-0.1l3.4-2.5C16.7,19.6,16.7,19.3,16.6,19.2z"/>
			<path id="Shape_14_" d="M17.5,20.6c0.1-0.2,0.4-0.2,0.6-0.1l3.4,2.5c0.2,0.1,0.2,0.4,0.1,0.6c-0.1,0.1-0.2,0.2-0.3,0.2
				c-0.1,0-0.2,0-0.3-0.1l-3.4-2.5C17.4,21,17.4,20.8,17.5,20.6z"/>
		</g>
	</g>
</g>
<g id="Layer_11" class="st0">
	<g id="ic_tractor" class="st1">
		<g id="noun_22947_cc" transform="translate(3.000000, 9.000000)">
			<path id="Shape_19_" d="M23.9,8.7c-2.2,0-3.9,1.8-3.9,3.9c0,2.2,1.8,3.9,3.9,3.9c2.2,0,3.9-1.8,3.9-3.9
				C27.8,10.5,26,8.7,23.9,8.7z M3.2,14.6c-0.8,0-1.5,0.7-1.5,1.5c0,0.8,0.7,1.5,1.5,1.5s1.5-0.7,1.5-1.5C4.7,15.3,4,14.6,3.2,14.6z
				 M25.3-0.6h1.5v5.9h3.4v1.5l-1.5,1.1c1.2,1.2,2,2.9,2,4.8c0,3.8-3.1,6.9-6.9,6.9S17,16.5,17,12.7H9.5l-0.9,1.5H6
				c0.4,0.6,0.6,1.2,0.6,2c0,1.9-1.5,3.4-3.4,3.4s-3.4-1.5-3.4-3.4c0-1.1,0.5-2,1.3-2.7l-1.7-6.1c0-0.2-0.1-0.4-0.1-0.5
				c0-0.9,0.6-1.7,1.4-1.9c0.2,0,0.4-0.1,0.5-0.1H12l0.5-1h3.9l-3,5.9h4.2V6.3c0-0.5,0.4-1,1-1h6.6V-0.6z"/>
		</g>
	</g>
</g>
<g id="Layer_12" class="st0">
	<g id="ic_travel" class="st1">
		<g id="suitcase-with-white-details-copy" transform="translate(10.000000, 10.000000)">
			<path id="Shape_22_" d="M-3.2,0.6C-3.7,1.3-4,2.2-4,3.1v13.3c0,1,0.3,1.8,0.8,2.5C-2.6,19.6-2,20-1.2,20h0.8V-0.4h-0.8
				C-2-0.4-2.6-0.1-3.2,0.6z"/>
			<path id="Shape_21_" d="M13.7-2.5c0-0.4-0.1-0.8-0.4-1.1S12.6-4,12.2-4H3.8C3.4-4,3-3.8,2.8-3.5S2.3-2.9,2.3-2.5V0H0.5v20h15.1V0
				h-1.9L13.7-2.5z M11.8,0H4.2v-2h7.5V0z"/>
			<path id="Shape_20_" d="M19.2,0.6c-0.5-0.7-1.2-1.1-1.9-1.1h-0.8V20h0.8c0.8,0,1.4-0.4,1.9-1.1c0.5-0.7,0.8-1.5,0.8-2.5V3.1
				C20,2.2,19.7,1.3,19.2,0.6z"/>
		</g>
	</g>
</g>
</svg>
