<?xml version="1.0" encoding="UTF-8"?>
<svg width="36px" height="36px" viewBox="0 0 36 36" version="1.1" xmlns="http://www.w3.org/2000/svg" xmlns:xlink="http://www.w3.org/1999/xlink">
    <!-- Generator: Sketch 52.5 (67469) - http://www.bohemiancoding.com/sketch -->
    <title>ic_health</title>
    <desc>Created with Sketch.</desc>
    <g id="Page-1" stroke="none" stroke-width="1" fill="none" fill-rule="evenodd" opacity="0.870000005">
        <g id="menu_left_web" transform="translate(-27.000000, -205.000000)" fill="#000000" fill-rule="nonzero">
            <g id="medical-copy" transform="translate(27.000000, 205.000000)">
                <path d="M7.72965897,18.7560235 L15.1165494,18.7560235 L16.2829005,13.3424782 C16.3418072,13.0630694 16.589215,12.8767969 16.8719668,12.8767969 C17.1547185,12.888439 17.390345,13.0863535 17.4374703,13.3657623 L18.4035389,19.4545455 L19.0043865,17.5568941 C19.0750744,17.3356955 19.275357,17.172707 19.4992021,17.149423 C19.7230473,17.1261389 19.9586738,17.2425592 20.076487,17.4404738 L20.9247424,18.930654 L29.2070135,18.8724438 C29.5368906,18.232132 29.7842984,17.53361 29.9021116,16.7652359 C30.24377,14.6231018 29.6782665,12.4576837 28.4058834,10.9907876 C27.2748763,9.68687994 25.6726161,9 23.7522603,9 C20.7833665,9 19.0986371,10.9675035 18.4977895,11.852298 C17.896942,10.9675035 16.2122126,9 13.2433188,9 C11.3347443,9 9.7207028,9.68687994 8.58969566,10.9907876 C7.31731261,12.4693258 6.76359036,14.6231018 7.09346745,16.7768779 C7.21128069,17.4986839 7.42334453,18.1506378 7.72965897,18.7560235 Z" id="Shape"></path>
                <path d="M20.0780098,20.7561364 C19.8679361,20.7561364 19.6695332,20.6411364 19.5644963,20.4686364 L19.2143735,19.8591364 L18.2690418,22.8146364 C18.1873464,23.0561364 17.965602,23.2171364 17.7088452,23.2171364 C17.6971744,23.2171364 17.6855037,23.2171364 17.6621622,23.2171364 C17.3937346,23.1941364 17.1719902,22.9986364 17.1253071,22.7341364 L16.2733415,17.3636364 L15.6781327,20.1121364 C15.6197789,20.3766364 15.3863636,20.5721364 15.1062654,20.5721364 L8.04545455,20.5721364 C9.43427518,22.4351364 11.5816953,23.6886364 13.2972973,24.7006364 C14.1375921,25.1951364 14.9312039,25.6551364 15.4914005,26.1036364 C17.5337838,27.7481364 17.720516,28.5761364 17.7321867,28.6106364 C17.7555283,28.7486364 17.8722359,28.8636364 18.0239558,28.8636364 C18.1756757,28.8636364 18.3040541,28.7601364 18.3157248,28.6106364 C18.3157248,28.5991364 18.4791155,27.7711364 20.5565111,26.1036364 C21.1050369,25.6551364 21.9103194,25.1951364 22.7506143,24.7006364 C24.4312039,23.7231364 26.5202703,22.5041364 27.9090909,20.7101364 L20.0780098,20.7561364 Z" id="Shape"></path>
            </g>
        </g>
    </g>
</svg>