<svg xmlns="http://www.w3.org/2000/svg" width="48" height="48"><style>.A{display:none}.B{display:inline}.C{fill:#e42125}.D{fill:#ff1b20}.F{fill:#eee;stroke:#fff;stroke-width:5.000000e-02;stroke-miterlimit:10}.G{fill:#eee}.H{fill:#550634}.K{fill:#fff}.L{display:inline;fill:#e42125}.M{fill:#fec88f}.N{fill:#fefefe}.O{fill:#fe9200}.Q{fill:#fe9000}.S{display:inline;fill:#fff}.Y{fill:#d5081c}.a{fill:#ffbf2b}.b{fill:#ff9833}.c{fill:#ffb700}.e{fill:#c32824}</style><path d="M23.5 13.6L7.7 20.1v.6l15.8 4.6 15.8-4.6v-.6z" fill="#cc0211"/><path d="M23.5 14.2L7.7 20.7l15.8 5.2 15.8-5.2z" fill="#ff141a"/><path class="Y" d="M34.3 22.1c0 1.3-3.8 2.4-8.8 2.6h-1.9c-6 0-10.8-1.2-10.8-2.6 0-.7 1.1-1.3 3-1.8 2-.5 4.7-.8 7.8-.8 5.9 0 10.7 1.1 10.7 2.6z"/><path class="Y" d="M12.7 22.1h21.6v4.8H12.7z"/><path d="M34.3 22.1v4.8h-5.2c-1.1-.8-2.3-1.5-3.6-2.3-1.7-1-3.6-1.8-5.3-2.6l-4.5-1.8c2-.5 4.7-.8 7.8-.8 6 .1 10.8 1.2 10.8 2.7z" opacity=".3" fill="#494949"/><path class="a" d="M36.5 24.9c-.2-.1-1.2-.7-1.9-4.6-.6-2.8-2.3-3.1-2.3-3.1l-.9-.4c.1 0 2.8-.8 3.8 3.3.9 3.6 1.7 4.2 1.7 4.2l-.4.6z"/><path class="a" d="M38.7 28.1l-2.6.6s-1.9-3.7-.9-5.2c.1-.2.3-.3.5-.4 0 0 .1 0 .1-.1.1-.1.3-.1.4-.1 1.7 0 3.9 3.8 4.1 4.4 0 .3-.7.5-1.6.8z"/><path class="a" d="M36.2 22.9c0 .2-.1.3-.2.4s-.3.2-.5.2c-.1 0-.3 0-.4-.1-.2-.1-.3-.3-.3-.6 0-.1 0-.3.1-.4a.55.55 0 0 1 .5-.3c.5.1.8.4.8.8z"/><path class="b" d="M38.7 28.1l-2.6.6s-1.9-3.7-.9-5.2c-.2-.1-.3-.3-.3-.6 0-.1 0-.3.1-.4 0 0 .1.5.5.5h.5v.3c.1.8.5 2.9 2.2 4.2.3.3.4.4.5.6zm-.9-2.1s-.9-2.2-1.4-2.5c-.5-.4 1.6.9 1.8 2.7.4 1.8-.4-.2-.4-.2zm1.1.7s-.9-2.2-1.4-2.5c-.5-.4 1.6.9 1.8 2.7.3 1.7-.4-.2-.4-.2z"/><path class="c" d="M40.8 30.2s0 .1 0 0c-.2 1.9-.8 2.9-.8 2.9L23.8 32H7.5s-.9-1-.8-3.2v-.4c.1-.9 1.2-3.1 1.2-3.2l.1-.5s10.4 3 16.2 3.1 16.1-1.9 16.1-1.9l.1 1.4c.1 0 .5 1.7.4 2.9z"/><path d="M40.8 30.2s0 .1 0 0c-3.3.2-10.8-.2-16.6-.2-5.9 0-14.1-.7-17.5-1.2v-.4c.1-.9 1.2-3.1 1.2-3.2 12.7 4.6 28.8 2.6 32.6 2.1 0 0 .4 1.7.3 2.9z" fill="#f6a100"/><path class="c" d="M6 27.4s10.6 2.1 18.4 2.2 17.7-.7 17.7-.7-.1-2.5-1.3-3.9c0 0-18.7 4.2-33.3-1.2 0 0-.9.5-1.5 3.6z"/><path class="e" d="M26.5 32.2l-4.6-.2s2-2.3-.2-5.5c-.3-.5 4.8-.6 4.8-.6v6.3z"/><path class="e" d="M24.9 31.3l.4.3 5.3 5.2-.6-2.6h2.3s-5.2-3.1-6-6.2"/><path d="M22.7 26.1c3.8 4.1 1.4 12.8 1.4 12.8l2.1-2.1L28 38s.5-10.2-1.3-12.1c-.2-.2-4.2 0-4 .2z" fill="#e4302c"/></svg>