<?xml version="1.0" encoding="UTF-8"?>
<svg width="48px" height="48px" viewBox="0 0 48 48" version="1.1" xmlns="http://www.w3.org/2000/svg" xmlns:xlink="http://www.w3.org/1999/xlink">
    <!-- Generator: Sketch 52.5 (67469) - http://www.bohemiancoding.com/sketch -->
    <title>ic_pay my dues</title>
    <desc>Created with Sketch.</desc>
    <g id="Page-1" stroke="none" stroke-width="1" fill="none" fill-rule="evenodd">
        <g id="menu" transform="translate(-1215.000000, -68.000000)" fill="#E42125" fill-rule="nonzero">
            <g id="ic_email_black_24px" transform="translate(1215.000000, 68.000000)">
                <g id="ic_insert_drive_file_black_24px" transform="translate(14.000000, 11.000000)">
                    <path d="M2.5,0 C1.125,0 0.0125,1.1 0.0125,2.44444444 L0,22 C0,23.3444444 1.1125,24.4444444 2.4875,24.4444444 L17.5,24.4444444 C18.875,24.4444444 20,23.3444444 20,22 L20,7.33333333 L12.5,0 L2.5,0 Z M11.25,8.55555556 L11.25,1.83333333 L18.125,8.55555556 L11.25,8.55555556 Z M6.87641957,11.503268 L6.87641957,11.5055592 C6.87641957,11.5055592 11.3481479,11.5050201 13.5714388,11.5055592 L13.5714388,12.853312 L11.0918095,12.853312 C11.4057517,13.2573683 11.6288963,13.7166824 11.732535,14.2010648 L13.5714388,14.2010648 L13.5714388,15.5488176 L11.732535,15.5488176 C11.4733445,16.7559998 10.5311028,17.8501055 9.0650036,18.1495762 L12.2921973,21.3240732 L11.3559409,22.2875817 L7.23235286,18.2420321 L6.87668737,18.2420321 L6.87604464,17.8809691 L6.87604464,17.7974084 L6.87604464,16.8840363 L7.76261071,16.8840363 L7.77867873,16.8840363 L8.24941798,16.8840363 C9.49778217,16.8840363 10.1337274,16.2877905 10.3625359,15.5494915 L6.87643296,15.5494915 L6.87643296,14.2017387 L10.3625359,14.2017387 C10.1350798,13.4618224 9.50052712,12.8779758 8.24941798,12.8644983 L6.87641957,12.8510208 L6.87641957,11.503268 Z" id="Shape"></path>
                </g>
            </g>
        </g>
    </g>
</svg>