<svg xmlns="http://www.w3.org/2000/svg" width="48" height="48"><style>.A{display:none}.B{display:inline}.C{fill:#e42125}.D{fill:#ff1b20}.F{fill:#eee;stroke:#fff;stroke-width:5.000000e-02;stroke-miterlimit:10}.G{fill:#eee}.H{fill:#550634}.K{fill:#fff}.L{display:inline;fill:#e42125}.M{fill:#fec88f}.N{fill:#fefefe}.O{fill:#fe9200}.Q{fill:#fe9000}.S{display:inline;fill:#fff}</style><path class="D" d="M11.9 31.4V17.2a.94.94 0 0 1 1-1h21.3a.94.94 0 0 1 1 1v14.2a.94.94 0 0 1-1 1H12.9c-.5 0-1-.4-1-1z"/><path d="M13.8 17.3h19.9v13.9H13.8z" fill="#b5011c"/><path class="D" d="M19.7 27.9h8v1.3h-8z"/><path class="F" d="M21.8 28.4h.2v.1c0 .1 0 .1-.1.1 0 0 .1 0 .1.1v.1-.1c0-.1 0-.1-.1-.1h-.1v.2h-.1v-.4zm0 .2c.1 0 .2 0 .2-.1s0-.1-.1-.1h-.1v.2z"/><path class="F" d="M22.2 28.7c0 .1.1.1.1.1-.1.1-.2 0-.1-.1-.1-.1 0-.2.1-.2s.1.1.1.2h-.2zm.2 0s0-.1-.1-.1-.1.1-.1.1h.2z"/><path class="F" d="M22.8 28.5s0 .1 0 0v.5h-.1c.1 0 .1 0 .1-.1l-.1.1c-.1 0-.1-.1-.1-.2s.1-.2.1-.2c0-.1 0-.1.1-.1zm-.1.2s0-.1 0 0c0-.1 0-.1 0 0-.1-.1-.2 0-.2 0 0 .1 0 .1.1.1s.1 0 .1-.1c0 .1 0 0 0 0zm.2-.3s0 .1 0 0c0 .1 0 0 0 0zm0 .5v-.4h.1l-.1.4zm.1-.1h.1c.1 0 0-.1-.1 0v-.2c0-.1 0-.1.1-.1H23l.1.1c.1 0 .1.1.1.1 0 .1 0 .2-.2.1.1.1 0 .1 0 0zm.4-.4v.4h-.2v-.3h-.1.1l.2-.1z"/><path class="F" d="M23.6 28.7c0 .1.1.1.1.1-.1.1-.2 0-.1-.1-.1-.1 0-.2.1-.2s.1.1.1.2h-.2zm.1 0s0-.1-.1-.1-.1.1-.1.1h.2z"/><path class="F" d="M23.9 28.6v-.1h.1l-.1.1.1-.1v.1h-.1c0 .1 0 .1 0 0l.1.2h-.1v-.2z"/><path class="F" d="M24.6 28.9h-.1c-.1 0-.2-.1-.2-.2 0-.2.1-.3.2-.3h.1v.1h-.1c-.1 0-.2.1-.2.2s.1.2.2.2c0-.1 0-.1.1 0z"/><path class="F" d="M24.6 28.4l.1.5h-.1v-.5zm.4.5h-.1c-.1 0-.1 0-.1-.1s.1-.1.2-.1c0 0 0-.1-.1-.1h-.1.1c.1 0 .1.1.1.1v.2c0-.1 0 0 0 0zm0-.2c-.1 0-.1 0-.1.1 0 0 0 .1.1.1-.1-.1 0-.1 0-.2 0 .1 0 .1 0 0zm.2-.3s0 .1 0 0c-.1.1-.1 0 0 0-.1 0-.1 0 0 0zm-.1.5v-.4h.1l-.1.4zm.2-.3c.1-.1.1-.1.2-.1 0 0 .1 0 .1.1h.1s.1 0 .1.2v.2h-.1v-.2c0-.1 0-.1-.1-.1 0 0-.1 0-.1.1v.2h-.1v-.2c0-.1 0-.1-.1-.1.1-.1.1-.1 0-.1.1 0 .1.1 0 0l.1.3h-.1v-.3z"/><path class="G" d="M19.9 20.6c0-.5.3-.7.5-.7s.5.2.5.7-.2.7-.5.7c-.3.1-.5-.2-.5-.7zm.3.1c0 .4.1.6.3.6.1 0 .3-.1.3-.6 0-.2 0-.6-.2-.6-.3 0-.4.1-.4.6zm1.2-.8l.6 1v-1h.2v1.4H22l-.6-1v1h-.2v-1.4h.2zm1.3 0v1.2h.4v.2h-.7v-1.4h.3zm.9 0v1.4h-.3v-1.4h.3zm.5 0l.6 1v-1h.2v1.4h-.2l-.6-1v1h-.2v-1.4h.2zm1.8 0v.2h-.5v.4h.4v.2h-.4v.5h.5v.2h-.7V20h.7zM20.1 22h.2c.1 0 .1.1.1.2s0 .2-.2.2l.2.4h-.1l-.2-.4v.4H20V22h.1zm-.1.1v.3c.1 0 .2 0 .2-.2 0-.1-.1-.1-.2-.1z"/><path class="G" d="M20.9 22l-.3.1v.3h.2v.1h-.2v.3h.3v.1h-.4V22h.4z"/><path class="G" d="M21.4 22.1h-.1c-.1 0-.2.1-.2.3 0 .1 0 .3.2.3h.1v-.2h-.1v-.1h.2v.3c-.1 0-.1.1-.2.1-.2 0-.3-.2-.3-.4 0-.3.1-.4.3-.4l.1.1zm.3-.1v.8h-.1V22h.1z"/><path class="G" d="M22.2 22.1h-.1c-.1 0-.1 0-.1.1 0 0 0 .1.1.1.1.1.2.1.2.2s-.1.2-.2.2-.1 0-.2-.1v-.1h.1c.1 0 .1-.1.1-.1 0-.1 0-.1-.1-.1h-.1c-.1-.1-.1-.1-.1-.2s.1-.2.2-.2c.1.1.2.1.2.2z"/><path class="G" d="M22.8 22l-.2.1v.7h-.1v-.7h-.2V22h.5zm.2 0h.2c.1 0 .1.1.1.2s0 .2-.2.2l.2.4h-.1l-.2-.3v.4h-.1V22h.1zm0 .1v.3c.1 0 .2 0 .2-.2 0-.1-.1-.1-.2-.1zm.7-.1l.2.8h-.1l-.1-.3h-.2l-.1.3h-.1l.4-.8zm-.2.5h.2l-.1-.3-.1.3zm.9-.5l-.2.1v.7h-.1v-.7h-.2V22h.5zm.2 0v.8h-.1V22h.1zm.2.4c0-.3.1-.4.3-.4.1 0 .3.1.3.4s-.1.4-.3.4-.3-.1-.3-.4zm.1 0c0 .2.1.3.2.3s.2-.1.2-.3c0-.1 0-.3-.2-.3s-.2.1-.2.3zm.6-.4l.3.6V22h.2v.8h-.1l-.3-.6v.6h-.1V22zm-6 1.6h8.1v1.3h-8.1zm0 2.3h8.1v1.3h-8.1z"/><circle class="H" cx="20.4" cy="24.2" r=".2"/><circle class="H" cx="21" cy="24.2" r=".2"/><circle class="H" cx="21.6" cy="24.2" r=".2"/><circle class="H" cx="22.3" cy="24.2" r=".2"/><circle class="H" cx="22.9" cy="24.2" r=".2"/><circle class="H" cx="23.5" cy="24.2" r=".2"/><circle class="H" cx="20.4" cy="26.5" r=".2"/><circle class="H" cx="21" cy="26.5" r=".2"/><circle class="H" cx="21.6" cy="26.5" r=".2"/><circle class="H" cx="22.3" cy="26.5" r=".2"/><circle class="H" cx="22.9" cy="26.5" r=".2"/><circle class="H" cx="23.5" cy="26.5" r=".2"/><path class="D" d="M26.3 12.5c-.1 0-.1 0-.2-.1-.7-.8-1.7-1.2-2.7-1.2s-2 .4-2.7 1.2c-.1.1-.3.1-.4 0s-.1-.3 0-.4a4.1 4.1 0 0 1 3.1-1.4 4.1 4.1 0 0 1 3.1 1.4c.1.1.1.3 0 .4 0 .1-.1.1-.2.1zm-.9.9c-.1 0-.1 0-.2-.1-.5-.5-1.1-.8-1.8-.8s-1.3.3-1.8.8c-.1.1-.3.1-.4 0s-.1-.3 0-.4c.6-.6 1.4-1 2.2-1s1.6.3 2.2 1c.1.1.1.3 0 .4 0 0-.1.1-.2.1zm-.8 1.1c-.1 0-.1 0-.2-.1-.3-.3-.6-.4-1-.4s-.7.2-1 .4c-.1.1-.3.1-.4 0s-.1-.3 0-.4c.4-.4.8-.6 1.3-.6s1 .2 1.3.6c.1.1.1.3 0 .4.1.1 0 .1 0 .1z"/><ellipse class="D" cx="23.4" cy="15.1" rx=".3" ry=".4"/></svg>