<?xml version="1.0" encoding="utf-8"?>
<!-- Generator: Adobe Illustrator 21.1.0, SVG Export Plug-In . SVG Version: 6.00 Build 0)  -->
<svg version="1.1" xmlns="http://www.w3.org/2000/svg" xmlns:xlink="http://www.w3.org/1999/xlink" x="0px" y="0px" width="48px"
	 height="48px" viewBox="0 0 48 48" style="enable-background:new 0 0 48 48;" xml:space="preserve">
<style type="text/css">
	.st0{display:none;}
	.st1{display:inline;}
	.st2{fill:#E42125;}
	.st3{fill:#D12525;}
	.st4{fill:#FDFAFA;}
</style>
<g id="Layer_1" class="st0">
	<title>ic_mail my policy</title>
	<desc>Created with Sketch.</desc>
	<g id="Page-1" class="st1">
		<g id="menu" transform="translate(-970.000000, -66.000000)">
			<g id="ic_email" transform="translate(970.000000, 66.000000)">
				<path id="Shape" class="st2" d="M32.7,15H14.3C13,15,12,16,12,17.2l0,13.1c0,1.2,1,2.2,2.3,2.2h18.4c1.3,0,2.3-1,2.3-2.2V17.2
					C35,16,34,15,32.7,15z M33.2,19.2L24,25.1l-9.2-5.9v-2.4l9.2,5.9l9.2-5.9V19.2z"/>
			</g>
		</g>
	</g>
</g>
<g id="Layer_2">
	<g>
		<path class="st3" d="M34.7,34.2c-0.1,0-0.2,0.1-0.2,0.2c0,0.2-0.1,0.3-0.2,0.4c-0.4,0.6-0.8,1.2-1.5,1.6c-0.3,0.2-0.7,0.3-1,0.5
			c-0.6,0.3-1.2,0.1-1.8,0.2c-0.6,0.1-1.1-0.1-1.6-0.4c-0.7-0.4-1.3-0.8-1.7-1.5c-0.2-0.3-0.3-0.5-0.5-0.8c-0.1-0.1-0.1-0.3-0.1-0.5
			c0-0.3-0.2-0.6-0.2-0.9c0-0.1,0-0.1-0.1-0.1c-0.1,0-0.1,0-0.2,0c-3.3,0-6.6,0-9.9,0c-0.3,0-0.3-0.1-0.3-0.3c0-0.3,0-0.6,0-0.9
			c0-0.2,0.1-0.3,0.3-0.3c3.4,0,6.8,0,10.1,0c0.2,0,0.4,0,0.4-0.3c0-0.2,0.2-0.5,0.3-0.7c0.1-0.1,0.1-0.3,0.3-0.3
			c-0.1-0.1-0.2-0.1-0.3-0.1c-3.6,0-7.2,0-10.8,0c-0.2,0-0.3-0.1-0.3-0.3c0-0.4-0.1-0.8,0-1.2c0-0.1,0.1-0.1,0.2-0.1
			c0.1,0,0.1,0,0.2,0c4.4,0,8.7,0,13.1,0c0.2,0,0.4-0.1,0.6-0.1c0.6-0.1,1.2-0.1,1.8,0c0.6,0.1,1.2,0.4,1.8,0.8
			c0.1,0.1,0.2,0.1,0.3,0.2c0.2,0.2,0.3,0.3,0,0.6c-0.4,0.4-0.7,0.7-1.1,1.1c-0.6,0.6-1.2,1.1-1.8,1.7c-0.2,0.2-0.3,0.1-0.5,0
			c-0.3-0.3-0.6-0.6-0.9-0.9c-0.4-0.3-0.9-0.3-1.2,0.1c-0.3,0.3-0.2,0.9,0.1,1.2c0.5,0.5,1.1,1.1,1.6,1.6c0.3,0.3,0.9,0.3,1.3,0
			c0.6-0.6,1.3-1.2,1.9-1.9c0.5-0.5,1-1,1.5-1.5c0.1-0.2,0.3-0.1,0.5-0.1C34.7,32.3,34.7,33.3,34.7,34.2z"/>
		<path class="st3" d="M12.1,23.7c0-4.3,0-8.7,0-13c0-0.3,0.1-0.4,0.4-0.4c6.7,0,13.3,0,20,0c0.7,0,0.7,0.3,0.8,0.8c0,0,0,0.1,0,0.1
			c0,5.7,0,11.4,0,17.1c0,0.1,0.1,0.3-0.1,0.3c-0.1,0.1-0.3,0-0.4-0.1c-0.2-0.2-0.5-0.3-0.8-0.5c-0.2-0.1-0.2-0.2-0.2-0.3
			c0-2.8,0-5.7,0-8.5c0-2.2,0-4.5,0-6.7c0-0.2,0-0.5-0.1-0.7c0-0.2-0.3-0.4-0.5-0.4c-0.1,0-0.1,0-0.2,0c-5.7,0-11.4,0-17.1,0
			c-0.4,0-0.8,0.2-0.8,0.7c0,0,0,0.1,0,0.1c0,7.6,0,15.3,0,22.9c0,0.3,0,0.6,0.3,0.7c0.1,0.1,0.2,0.1,0.3,0.1c4,0,8,0,12,0
			c0.2,0,0.4,0.1,0.6,0.2c0.4,0.4,0.7,0.7,1.2,0.8c0.1,0,0.1,0,0.1,0.1c0,0.1,0,0.1-0.1,0.1c-0.1,0-0.1,0-0.2,0c-5,0-10,0-15,0
			c-0.4,0-0.5-0.1-0.5-0.5C12.1,32.3,12.1,28,12.1,23.7z"/>
		<path class="st3" d="M22.6,22.7c2.3,0,4.6,0,6.9,0c0.3,0,0.4,0.1,0.3,0.4c0,0.3,0,0.6,0,1c0,0.2-0.1,0.2-0.2,0.2
			c-0.1,0-0.1,0-0.2,0c-4.6,0-9.1,0-13.7,0c-0.2,0-0.3-0.1-0.3-0.3c0-0.4,0-0.7,0-1.1c0-0.2,0.1-0.2,0.3-0.2c1.1,0,2.2,0,3.2,0
			C20.1,22.7,21.4,22.7,22.6,22.7z"/>
		<path class="st3" d="M22.6,27.1c-2.3,0-4.6,0-6.9,0c-0.3,0-0.3-0.1-0.3-0.3c0-0.3,0-0.6,0-0.8c0-0.2,0.1-0.3,0.3-0.3
			c4.6,0,9.2,0,13.8,0c0.2,0,0.3,0.1,0.3,0.3c0,0.3,0,0.6,0,0.9c0,0.2-0.1,0.3-0.3,0.3c-0.6,0-1.3,0-1.9,0
			C26,27.1,24.3,27.1,22.6,27.1z"/>
		<path class="st3" d="M24.8,19.4c0,0.2,0,0.3-0.2,0.3c-0.3-0.1-0.7,0-1,0c-0.2,0-0.2-0.1-0.3-0.2c0-0.2-0.1-0.4-0.2-0.6
			c0-0.1-0.1-0.1-0.1-0.2c0.1-0.3-0.1-0.3-0.4-0.3c-0.4,0-0.9,0-1.3,0c-0.2,0-0.2,0.1-0.3,0.2c0,0.3-0.1,0.5-0.2,0.8
			c-0.1,0.4-0.3,0.3-0.6,0.3c-0.2,0-0.4,0-0.6,0c-0.1,0-0.2,0-0.2-0.2c0-0.1,0-0.2,0.1-0.3c0.1-0.4,0.3-0.8,0.4-1.2
			c0.1-0.4,0.2-0.7,0.3-1.1c0.1-0.4,0.2-0.8,0.4-1.1c0.1-0.2,0.1-0.4,0.2-0.6c0.1-0.2,0.2-0.4,0.2-0.6c0.1-0.4,0.3-0.7,0.3-1
			c0-0.2,0.2-0.2,0.3-0.3c0.3,0,0.6,0,0.9,0c0.1,0,0.2,0.1,0.3,0.2c0.2,0.4,0.1,0.8,0.4,1.1c0.1,0.1,0.1,0.3,0.1,0.4
			c0,0.3,0.2,0.4,0.2,0.7c0,0.2,0,0.4,0.2,0.5c0.1,0.1,0.1,0.3,0.1,0.5c0.1,0.4,0.3,0.7,0.3,1.1c0,0.2,0.2,0.4,0.2,0.6
			C24.5,18.7,24.7,19,24.8,19.4C24.8,19.4,24.8,19.4,24.8,19.4z"/>
		<path class="st3" d="M27.4,14.9c0.1-0.3,0.3-0.5,0.4-0.8c0.1-0.2,0.3-0.5,0.4-0.7c0-0.1,0.2-0.1,0.4-0.1c0.3,0,0.5,0,0.8,0
			c0.3,0,0.3,0.1,0.2,0.4c-0.2,0.4-0.4,0.7-0.6,1.1c-0.3,0.5-0.5,1-0.8,1.4c-0.1,0.1,0,0.2,0,0.3c0.3,0.4,0.5,1,0.8,1.4
			c0.3,0.4,0.4,0.9,0.7,1.3c0.1,0.1,0.1,0.3,0.1,0.4c-0.1,0.1-0.2,0-0.3,0c-0.2,0-0.5-0.1-0.7,0c-0.3,0.1-0.4-0.2-0.5-0.3
			c-0.2-0.4-0.4-0.8-0.6-1.2c-0.1-0.1-0.1-0.3-0.2-0.4c-0.2,0.5-0.5,0.9-0.7,1.4c0,0.1-0.1,0.2-0.2,0.3c-0.1,0.1-0.2,0.2-0.3,0.2
			c-0.3,0-0.7,0-1,0c-0.1,0-0.1,0-0.2-0.1c0-0.1-0.1-0.3,0-0.4c0.4-0.5,0.6-1.1,0.9-1.7c0.2-0.4,0.5-0.7,0.6-1.1
			c0-0.1,0.1,0,0.1-0.1c-0.2-0.4-0.4-0.7-0.6-1c-0.3-0.6-0.6-1.2-1-1.7c-0.1-0.1,0-0.3,0.2-0.3c0.3,0,0.7,0,1,0
			c0.2,0,0.3,0.1,0.3,0.2C26.8,14,27,14.4,27.4,14.9C27.3,14.9,27.3,14.9,27.4,14.9z"/>
		<path class="st3" d="M16.9,17.1c0-0.7,0-1.5,0-2.2c0-0.2-0.1-0.3-0.3-0.3c-0.3,0-0.7,0-1,0c-0.2,0-0.3-0.1-0.3-0.3
			c0-0.3,0-0.5,0-0.8c0-0.2,0.2-0.2,0.3-0.2c1.1,0,2.1,0,3.2,0c0.2,0,0.3,0,0.5,0c0.2,0,0.2,0,0.2,0.2c0,0.3,0,0.6,0,0.9
			c0,0.1-0.1,0.2-0.2,0.2c-0.4,0-0.8,0-1.1,0c-0.1,0-0.2,0-0.2,0.2c0,0.9,0,1.8,0,2.8c0,0.6,0,1.2,0,1.9c0,0.1,0,0.2-0.2,0.2
			c-0.3,0-0.5,0-0.8,0c-0.2,0-0.2,0-0.2-0.2C16.9,18.6,16.9,17.8,16.9,17.1z"/>
		<path class="st4" d="M22.1,15.3c0.3,0.5,0.4,1.1,0.5,1.6c-0.3,0-0.7,0-1.1,0.1C21.8,16.4,21.9,15.9,22.1,15.3z"/>
	</g>
</g>
<g id="Layer_3">
</g>
</svg>
