<?xml version="1.0" encoding="UTF-8"?>
<svg width="48px" height="48px" viewBox="0 0 48 48" version="1.1" xmlns="http://www.w3.org/2000/svg" xmlns:xlink="http://www.w3.org/1999/xlink">
    <!-- Generator: Sketch 52.5 (67469) - http://www.bohemiancoding.com/sketch -->
    <title>ic_track request</title>
    <desc>Created with Sketch.</desc>
    <g id="Page-1" stroke="none" stroke-width="1" fill="none" fill-rule="evenodd">
        <g id="menu" transform="translate(-1095.000000, -308.000000)">
            <g id="ic_email_black_24px" transform="translate(1095.000000, 308.000000)">
                <g id="ic_my_location_black_24px" transform="translate(9.000000, 8.000000)">
                    <polygon id="Shape" points="0 0 30 0 30 30 0 30"></polygon>
                    <path d="M15,9.90909091 C12.1872727,9.90909091 9.90909091,12.1872727 9.90909091,15 C9.90909091,17.8127273 12.1872727,20.0909091 15,20.0909091 C17.8127273,20.0909091 20.0909091,17.8127273 20.0909091,15 C20.0909091,12.1872727 17.8127273,9.90909091 15,9.90909091 Z M26.3781818,13.7272727 C25.7927273,8.42 21.58,4.20727273 16.2727273,3.62181818 L16.2727273,1 L13.7272727,1 L13.7272727,3.62181818 C8.42,4.20727273 4.20727273,8.42 3.62181818,13.7272727 L1,13.7272727 L1,16.2727273 L3.62181818,16.2727273 C4.20727273,21.58 8.42,25.7927273 13.7272727,26.3781818 L13.7272727,29 L16.2727273,29 L16.2727273,26.3781818 C21.58,25.7927273 25.7927273,21.58 26.3781818,16.2727273 L29,16.2727273 L29,13.7272727 L26.3781818,13.7272727 Z M15,23.9090909 C10.0745455,23.9090909 6.09090909,19.9254545 6.09090909,15 C6.09090909,10.0745455 10.0745455,6.09090909 15,6.09090909 C19.9254545,6.09090909 23.9090909,10.0745455 23.9090909,15 C23.9090909,19.9254545 19.9254545,23.9090909 15,23.9090909 Z" id="Shape" fill="#E42125" fill-rule="nonzero"></path>
                </g>
            </g>
        </g>
    </g>
</svg>