<?xml version="1.0" encoding="utf-8"?>
<!-- Generator: Adobe Illustrator 21.1.0, SVG Export Plug-In . SVG Version: 6.00 Build 0)  -->
<svg version="1.1" xmlns="http://www.w3.org/2000/svg" xmlns:xlink="http://www.w3.org/1999/xlink" x="0px" y="0px" width="48px"
	 height="48px" viewBox="0 0 48 48" style="enable-background:new 0 0 48 48;" xml:space="preserve">
<style type="text/css">
	.st0{display:none;}
	.st1{display:inline;}
	.st2{fill:#E42125;}
	.st3{fill:#FF1B20;}
	.st4{fill:#B5011C;}
	.st5{fill:#EEEEEE;stroke:#FFFFFF;stroke-width:5.000000e-02;stroke-miterlimit:10;}
	.st6{font-family:'OpenSans';}
	.st7{font-size:0.737px;}
	.st8{fill:#EEEEEE;}
	.st9{font-family:'OceanSansStd-Semibold';}
	.st10{font-size:2.1216px;}
	.st11{font-family:'OceanSansStd-Book';}
	.st12{font-size:1.1602px;}
	.st13{fill:#550634;}
	.st14{fill:#ED1C24;}
	.st15{fill:#BE1E2D;}
	.st16{fill:#FFFFFF;}
</style>
<g id="Layer_1" class="st0">
	<title>ic_mail my policy</title>
	<desc>Created with Sketch.</desc>
	<g id="Page-1" class="st1">
		<g id="menu" transform="translate(-970.000000, -66.000000)">
			<g id="ic_email" transform="translate(970.000000, 66.000000)">
				<path id="Shape" class="st2" d="M32.7,15H14.3C13,15,12,16,12,17.2l0,13.1c0,1.2,1,2.2,2.3,2.2h18.4c1.3,0,2.3-1,2.3-2.2V17.2
					C35,16,34,15,32.7,15z M33.2,19.2L24,25.1l-9.2-5.9v-2.4l9.2,5.9l9.2-5.9V19.2z"/>
			</g>
		</g>
	</g>
</g>
<g id="Register_claim" class="st0">
	<g id="XMLID_33_" class="st1">
		<g id="XMLID_31_">
			<g id="XMLID_37_">
				<path id="XMLID_30_" class="st3" d="M11.9,31.4l0-14.2c0-0.6,0.4-1,1-1h21.3c0.6,0,1,0.4,1,1v14.2c0,0.6-0.4,1-1,1H12.9
					C12.4,32.4,11.9,32,11.9,31.4z"/>
				<rect id="XMLID_122_" x="13.8" y="17.3" class="st4" width="19.9" height="13.9"/>
				<g id="XMLID_46_">
					<rect id="XMLID_53_" x="19.7" y="27.9" class="st3" width="8" height="1.3"/>
					<g id="XMLID_44_">
						<text transform="matrix(0.9356 0 0 1 21.7173 28.8779)" class="st5 st6 st7">Register Claim</text>
					</g>
				</g>
			</g>
		</g>
		<g id="XMLID_35_">
			<g id="XMLID_32_">
				<text transform="matrix(0.9356 0 0 1 19.811 21.3438)" class="st8 st9 st10">ONLINE</text>
			</g>
			<g id="XMLID_36_">
				<text transform="matrix(0.9356 0 0 1 19.811 22.8105)" class="st8 st11 st12">REGISTRATION</text>
			</g>
		</g>
		<g id="XMLID_43_">
			<rect id="XMLID_38_" x="19.5" y="23.6" class="st8" width="8.1" height="1.3"/>
			<rect id="XMLID_40_" x="19.5" y="25.9" class="st8" width="8.1" height="1.3"/>
			<g id="XMLID_41_">
				<ellipse id="XMLID_39_" class="st13" cx="20.4" cy="24.2" rx="0.2" ry="0.2"/>
				<ellipse id="XMLID_42_" class="st13" cx="21" cy="24.2" rx="0.2" ry="0.2"/>
				<ellipse id="XMLID_50_" class="st13" cx="21.6" cy="24.2" rx="0.2" ry="0.2"/>
				<ellipse id="XMLID_74_" class="st13" cx="22.3" cy="24.2" rx="0.2" ry="0.2"/>
				<ellipse id="XMLID_79_" class="st13" cx="22.9" cy="24.2" rx="0.2" ry="0.2"/>
				<ellipse id="XMLID_82_" class="st13" cx="23.5" cy="24.2" rx="0.2" ry="0.2"/>
			</g>
			<g id="XMLID_86_">
				<ellipse id="XMLID_109_" class="st13" cx="20.4" cy="26.5" rx="0.2" ry="0.2"/>
				<ellipse id="XMLID_106_" class="st13" cx="21" cy="26.5" rx="0.2" ry="0.2"/>
				<ellipse id="XMLID_98_" class="st13" cx="21.6" cy="26.5" rx="0.2" ry="0.2"/>
				<ellipse id="XMLID_94_" class="st13" cx="22.3" cy="26.5" rx="0.2" ry="0.2"/>
				<ellipse id="XMLID_91_" class="st13" cx="22.9" cy="26.5" rx="0.2" ry="0.2"/>
				<ellipse id="XMLID_87_" class="st13" cx="23.5" cy="26.5" rx="0.2" ry="0.2"/>
			</g>
		</g>
	</g>
	<g id="XMLID_45_" class="st1">
		<g>
			<path id="XMLID_72_" class="st3" d="M26.3,12.5c-0.1,0-0.1,0-0.2-0.1c-0.7-0.8-1.7-1.2-2.7-1.2c-1,0-2,0.4-2.7,1.2
				c-0.1,0.1-0.3,0.1-0.4,0c-0.1-0.1-0.1-0.3,0-0.4c0.8-0.9,1.9-1.4,3.1-1.4c1.2,0,2.3,0.5,3.1,1.4c0.1,0.1,0.1,0.3,0,0.4
				C26.5,12.5,26.4,12.5,26.3,12.5z"/>
			<path id="XMLID_71_" class="st3" d="M25.4,13.4c-0.1,0-0.1,0-0.2-0.1c-0.5-0.5-1.1-0.8-1.8-0.8c-0.7,0-1.3,0.3-1.8,0.8
				c-0.1,0.1-0.3,0.1-0.4,0c-0.1-0.1-0.1-0.3,0-0.4c0.6-0.6,1.4-1,2.2-1c0.8,0,1.6,0.3,2.2,1c0.1,0.1,0.1,0.3,0,0.4
				C25.6,13.3,25.5,13.4,25.4,13.4z"/>
			<path id="XMLID_70_" class="st3" d="M24.6,14.5c-0.1,0-0.1,0-0.2-0.1c-0.3-0.3-0.6-0.4-1-0.4c-0.4,0-0.7,0.2-1,0.4
				c-0.1,0.1-0.3,0.1-0.4,0c-0.1-0.1-0.1-0.3,0-0.4c0.4-0.4,0.8-0.6,1.3-0.6c0.5,0,1,0.2,1.3,0.6c0.1,0.1,0.1,0.3,0,0.4
				C24.7,14.5,24.6,14.5,24.6,14.5z"/>
			<ellipse id="XMLID_68_" class="st3" cx="23.4" cy="15.1" rx="0.3" ry="0.4"/>
		</g>
	</g>
</g>
<g id="Layer_4">
	<g>
		<g>
			<path class="st14" d="M33.2,19L33.2,19c0-5.1-4.1-9.2-9.2-9.2c-5.1,0-9.2,4.1-9.2,9.2c0,0-0.7,6.5,9.2,19.3
				C33.9,25.4,33.2,19,33.2,19z"/>
			<path class="st15" d="M24,38.2C33.9,25.4,33.2,19,33.2,19c0-5.1-4.1-9.2-9.2-9.2V38.2z"/>
			<circle class="st16" cx="24" cy="19" r="8"/>
		</g>
	</g>
</g>
<g id="Layer_2">
</g>
</svg>
