<?xml version="1.0" encoding="UTF-8"?>
<svg width="48px" height="48px" viewBox="0 0 48 48" version="1.1" xmlns="http://www.w3.org/2000/svg" xmlns:xlink="http://www.w3.org/1999/xlink">
    <!-- Generator: Sketch 52.5 (67469) - http://www.bohemiancoding.com/sketch -->
    <title>ic_transfer my car insurnce</title>
    <desc>Created with Sketch.</desc>
    <defs>
        <polygon id="path-1" points="0.105127517 0.00105918049 21.653499 0.00105918049 21.653499 13.7693464 0.105127517 13.7693464"></polygon>
    </defs>
    <g id="Page-1" stroke="none" stroke-width="1" fill="none" fill-rule="evenodd">
        <g id="menu" transform="translate(-1135.000000, -388.000000)">
            <g id="ic_email_black_24px" transform="translate(1135.000000, 388.000000)">
                <g id="Page-1" transform="translate(13.000000, 6.000000)">
                    <path d="M9.29430884,17.4319926 L9.29430884,11.524943 L14.9741642,17.4319926 L9.29430884,17.4319926 Z M4.13080393,22.8020377 L12.3924118,22.8020377 L12.3924118,20.6540196 L4.13080393,20.6540196 L4.13080393,22.8020377 Z M4.13080393,27.0980738 L12.3924118,27.0980738 L12.3924118,24.9500557 L4.13080393,24.9500557 L4.13080393,27.0980738 Z M10.3270098,9.91392942 L2.06540196,9.91392942 C0.929430884,9.91392942 0.0103270098,10.8805375 0.0103270098,12.0619475 L0,29.2460918 C0,30.4275017 0.919103874,31.3941098 2.05507495,31.3941098 L14.4578137,31.3941098 C15.5937848,31.3941098 16.5232157,30.4275017 16.5232157,29.2460918 L16.5232157,16.3579836 L10.3270098,9.91392942 Z" id="Fill-1" fill="#E42125"></path>
                    <g id="Group-5" transform="translate(3.304643, 0.000000)">
                        <mask id="mask-2" fill="white">
                            <use xlink:href="#path-1"></use>
                        </mask>
                        <g id="Clip-4"></g>
                        <path d="M14.0051909,13.7693464 L14.0051909,10.5918049 L21.653499,10.5918049 L21.653499,8.47344395 L14.0051909,8.47344395 L14.0051909,5.29590247 L9.65187437,9.53262445 L14.0051909,13.7693464 Z M7.75343557,3.17754148 L0.105127517,3.17754148 L0.105127517,5.29590247 L7.75343557,5.29590247 L7.75343557,8.47344395 L12.1067521,4.23672198 L7.75343557,0 L7.75343557,3.17754148 Z" id="Fill-3" fill="#E42125" mask="url(#mask-2)"></path>
                    </g>
                </g>
            </g>
        </g>
    </g>
</svg>