<svg xmlns="http://www.w3.org/2000/svg" width="36" height="36"><style>.A{display:none}.B{display:inline}.C{fill:none}</style><path d="M15.4 15.4l-4.1-5c-.3-.4-.7-.8-1-1.2s-.3-.6.1-.9c1.1-.7 2.1-1 3.3-.2l6.8 4c.4.2.7.3 1.2 0l4-2.1c1.4-.7 2.8-.9 4.2-.4.3.1.6.2.9.4.9.6 1 1.3.1 2.1-.3.3-.6.5-1 .7l-15.7 8.4c-2.2 1.1-4.5 1.3-6.8 1.2-.2 0-.4-.1-.6-.1-.5-.2-.7-.6-.3-1 .3-.4.2-.7 0-1.1l-1.7-2.5c-.3-.5-.3-.7.2-1 .5-.2.9-.3 1.4-.1L9.9 18c.2.1.4.2.6.1l4.9-2.7zm15.4 16.1c-.2.4-.5.2-.7.2H5.8c-.6 0-.8-.1-.8-.9 0-1.6 0-1.6 1.3-1.6H30c.2 0 .5-.2.7.2l.1 2.1z"/><path d="M30.8 31.5a3.75 3.75 0 0 1 0-2.1v2.1z"/></svg>