<?xml version="1.0" encoding="utf-8"?>
<!-- Generator: Adobe Illustrator 21.1.0, SVG Export Plug-In . SVG Version: 6.00 Build 0)  -->
<svg version="1.1" xmlns="http://www.w3.org/2000/svg" xmlns:xlink="http://www.w3.org/1999/xlink" x="0px" y="0px" width="48px"
	 height="48px" viewBox="0 0 48 48" style="enable-background:new 0 0 48 48;" xml:space="preserve">
<style type="text/css">
	.st0{display:none;}
	.st1{display:inline;}
	.st2{fill:#E42125;}
	.st3{fill:#FDFAFA;}
	.st4{fill:#FDFDFD;}
	.st5{fill:#F0F0F0;}
	.st6{fill:#F7F7F7;}
	.st7{fill:#F4F4F4;}
</style>
<g id="email" class="st0">
	<title>ic_mail my policy</title>
	<desc>Created with Sketch.</desc>
	<g id="Page-1" class="st1">
		<g id="menu" transform="translate(-970.000000, -66.000000)">
			<g id="ic_email" transform="translate(970.000000, 66.000000)">
				<path id="Shape" class="st2" d="M32.7,15H14.3C13,15,12,16,12,17.2l0,13.1c0,1.2,1,2.2,2.3,2.2h18.4c1.3,0,2.3-1,2.3-2.2V17.2
					C35,16,34,15,32.7,15z M33.2,19.2L24,25.1l-9.2-5.9v-2.4l9.2,5.9l9.2-5.9V19.2z"/>
			</g>
		</g>
	</g>
</g>
<g id="Tax" class="st0">
	<g class="st1">
		<path class="st2" d="M34.7,34.2c-0.1,0-0.2,0.1-0.2,0.2c0,0.2-0.1,0.3-0.2,0.4c-0.4,0.6-0.8,1.2-1.5,1.6c-0.3,0.2-0.7,0.3-1,0.5
			c-0.6,0.3-1.2,0.1-1.8,0.2c-0.6,0.1-1.1-0.1-1.6-0.4c-0.7-0.4-1.3-0.8-1.7-1.5c-0.2-0.3-0.3-0.5-0.5-0.8c-0.1-0.1-0.1-0.3-0.1-0.5
			c0-0.3-0.2-0.6-0.2-0.9c0-0.1,0-0.1-0.1-0.1c-0.1,0-0.1,0-0.2,0c-3.3,0-6.6,0-9.9,0c-0.3,0-0.3-0.1-0.3-0.3c0-0.3,0-0.6,0-0.9
			c0-0.2,0.1-0.3,0.3-0.3c3.4,0,6.8,0,10.1,0c0.2,0,0.4,0,0.4-0.3c0-0.2,0.2-0.5,0.3-0.7c0.1-0.1,0.1-0.3,0.3-0.3
			c-0.1-0.1-0.2-0.1-0.3-0.1c-3.6,0-7.2,0-10.8,0c-0.2,0-0.3-0.1-0.3-0.3c0-0.4-0.1-0.8,0-1.2c0-0.1,0.1-0.1,0.2-0.1
			c0.1,0,0.1,0,0.2,0c4.4,0,8.7,0,13.1,0c0.2,0,0.4-0.1,0.6-0.1c0.6-0.1,1.2-0.1,1.8,0c0.6,0.1,1.2,0.4,1.8,0.8
			c0.1,0.1,0.2,0.1,0.3,0.2c0.2,0.2,0.3,0.3,0,0.6c-0.4,0.4-0.7,0.7-1.1,1.1c-0.6,0.6-1.2,1.1-1.8,1.7c-0.2,0.2-0.3,0.1-0.5,0
			c-0.3-0.3-0.6-0.6-0.9-0.9c-0.4-0.3-0.9-0.3-1.2,0.1c-0.3,0.3-0.2,0.9,0.1,1.2c0.5,0.5,1.1,1.1,1.6,1.6c0.3,0.3,0.9,0.3,1.3,0
			c0.6-0.6,1.3-1.2,1.9-1.9c0.5-0.5,1-1,1.5-1.5c0.1-0.2,0.3-0.1,0.5-0.1C34.7,32.3,34.7,33.3,34.7,34.2z"/>
		<path class="st2" d="M12.1,23.7c0-4.3,0-8.7,0-13c0-0.3,0.1-0.4,0.4-0.4c6.7,0,13.3,0,20,0c0.7,0,0.7,0.3,0.8,0.8c0,0,0,0.1,0,0.1
			c0,5.7,0,11.4,0,17.1c0,0.1,0.1,0.3-0.1,0.3c-0.1,0.1-0.3,0-0.4-0.1c-0.2-0.2-0.5-0.3-0.8-0.5c-0.2-0.1-0.2-0.2-0.2-0.3
			c0-2.8,0-5.7,0-8.5c0-2.2,0-4.5,0-6.7c0-0.2,0-0.5-0.1-0.7c0-0.2-0.3-0.4-0.5-0.4c-0.1,0-0.1,0-0.2,0c-5.7,0-11.4,0-17.1,0
			c-0.4,0-0.8,0.2-0.8,0.7c0,0,0,0.1,0,0.1c0,7.6,0,15.3,0,22.9c0,0.3,0,0.6,0.3,0.7c0.1,0.1,0.2,0.1,0.3,0.1c4,0,8,0,12,0
			c0.2,0,0.4,0.1,0.6,0.2c0.4,0.4,0.7,0.7,1.2,0.8c0.1,0,0.1,0,0.1,0.1c0,0.1,0,0.1-0.1,0.1c-0.1,0-0.1,0-0.2,0c-5,0-10,0-15,0
			c-0.4,0-0.5-0.1-0.5-0.5C12.1,32.3,12.1,28,12.1,23.7z"/>
		<path class="st2" d="M22.6,22.7c2.3,0,4.6,0,6.9,0c0.3,0,0.4,0.1,0.3,0.4c0,0.3,0,0.6,0,1c0,0.2-0.1,0.2-0.2,0.2
			c-0.1,0-0.1,0-0.2,0c-4.6,0-9.1,0-13.7,0c-0.2,0-0.3-0.1-0.3-0.3c0-0.4,0-0.7,0-1.1c0-0.2,0.1-0.2,0.3-0.2c1.1,0,2.2,0,3.2,0
			C20.1,22.7,21.4,22.7,22.6,22.7z"/>
		<path class="st2" d="M22.6,27.1c-2.3,0-4.6,0-6.9,0c-0.3,0-0.3-0.1-0.3-0.3c0-0.3,0-0.6,0-0.8c0-0.2,0.1-0.3,0.3-0.3
			c4.6,0,9.2,0,13.8,0c0.2,0,0.3,0.1,0.3,0.3c0,0.3,0,0.6,0,0.9c0,0.2-0.1,0.3-0.3,0.3c-0.6,0-1.3,0-1.9,0
			C26,27.1,24.3,27.1,22.6,27.1z"/>
		<path class="st2" d="M24.8,19.4c0,0.2,0,0.3-0.2,0.3c-0.3-0.1-0.7,0-1,0c-0.2,0-0.2-0.1-0.3-0.2c0-0.2-0.1-0.4-0.2-0.6
			c0-0.1-0.1-0.1-0.1-0.2c0.1-0.3-0.1-0.3-0.4-0.3c-0.4,0-0.9,0-1.3,0c-0.2,0-0.2,0.1-0.3,0.2c0,0.3-0.1,0.5-0.2,0.8
			c-0.1,0.4-0.3,0.3-0.6,0.3c-0.2,0-0.4,0-0.6,0c-0.1,0-0.2,0-0.2-0.2c0-0.1,0-0.2,0.1-0.3c0.1-0.4,0.3-0.8,0.4-1.2
			c0.1-0.4,0.2-0.7,0.3-1.1c0.1-0.4,0.2-0.8,0.4-1.1c0.1-0.2,0.1-0.4,0.2-0.6c0.1-0.2,0.2-0.4,0.2-0.6c0.1-0.4,0.3-0.7,0.3-1
			c0-0.2,0.2-0.2,0.3-0.3c0.3,0,0.6,0,0.9,0c0.1,0,0.2,0.1,0.3,0.2c0.2,0.4,0.1,0.8,0.4,1.1c0.1,0.1,0.1,0.3,0.1,0.4
			c0,0.3,0.2,0.4,0.2,0.7c0,0.2,0,0.4,0.2,0.5c0.1,0.1,0.1,0.3,0.1,0.5c0.1,0.4,0.3,0.7,0.3,1.1c0,0.2,0.2,0.4,0.2,0.6
			C24.5,18.7,24.7,19,24.8,19.4C24.8,19.4,24.8,19.4,24.8,19.4z"/>
		<path class="st2" d="M27.4,14.9c0.1-0.3,0.3-0.5,0.4-0.8c0.1-0.2,0.3-0.5,0.4-0.7c0-0.1,0.2-0.1,0.4-0.1c0.3,0,0.5,0,0.8,0
			c0.3,0,0.3,0.1,0.2,0.4c-0.2,0.4-0.4,0.7-0.6,1.1c-0.3,0.5-0.5,1-0.8,1.4c-0.1,0.1,0,0.2,0,0.3c0.3,0.4,0.5,1,0.8,1.4
			c0.3,0.4,0.4,0.9,0.7,1.3c0.1,0.1,0.1,0.3,0.1,0.4c-0.1,0.1-0.2,0-0.3,0c-0.2,0-0.5-0.1-0.7,0c-0.3,0.1-0.4-0.2-0.5-0.3
			c-0.2-0.4-0.4-0.8-0.6-1.2c-0.1-0.1-0.1-0.3-0.2-0.4c-0.2,0.5-0.5,0.9-0.7,1.4c0,0.1-0.1,0.2-0.2,0.3c-0.1,0.1-0.2,0.2-0.3,0.2
			c-0.3,0-0.7,0-1,0c-0.1,0-0.1,0-0.2-0.1c0-0.1-0.1-0.3,0-0.4c0.4-0.5,0.6-1.1,0.9-1.7c0.2-0.4,0.5-0.7,0.6-1.1
			c0-0.1,0.1,0,0.1-0.1c-0.2-0.4-0.4-0.7-0.6-1c-0.3-0.6-0.6-1.2-1-1.7c-0.1-0.1,0-0.3,0.2-0.3c0.3,0,0.7,0,1,0
			c0.2,0,0.3,0.1,0.3,0.2C26.8,14,27,14.4,27.4,14.9C27.3,14.9,27.3,14.9,27.4,14.9z"/>
		<path class="st2" d="M16.9,17.1c0-0.7,0-1.5,0-2.2c0-0.2-0.1-0.3-0.3-0.3c-0.3,0-0.7,0-1,0c-0.2,0-0.3-0.1-0.3-0.3
			c0-0.3,0-0.5,0-0.8c0-0.2,0.2-0.2,0.3-0.2c1.1,0,2.1,0,3.2,0c0.2,0,0.3,0,0.5,0c0.2,0,0.2,0,0.2,0.2c0,0.3,0,0.6,0,0.9
			c0,0.1-0.1,0.2-0.2,0.2c-0.4,0-0.8,0-1.1,0c-0.1,0-0.2,0-0.2,0.2c0,0.9,0,1.8,0,2.8c0,0.6,0,1.2,0,1.9c0,0.1,0,0.2-0.2,0.2
			c-0.3,0-0.5,0-0.8,0c-0.2,0-0.2,0-0.2-0.2C16.9,18.6,16.9,17.8,16.9,17.1z"/>
		<path class="st3" d="M22.1,15.3c0.3,0.5,0.4,1.1,0.5,1.6c-0.3,0-0.7,0-1.1,0.1C21.8,16.4,21.9,15.9,22.1,15.3z"/>
	</g>
</g>
<g id="Layer_4">
	<path class="st2" d="M26.6,30.3c0.1,0.3-0.1,0.6,0.2,0.9c0.4,0.1,0.7,0.3,0.7,0.8c-0.1,0.1-0.2,0.2-0.3,0.2c-2.3,0-4.7,0-7,0
		c-0.1,0-0.2,0-0.3-0.2c0-0.4,0.3-0.6,0.7-0.8c0.4-0.6,0.3-1-0.5-1c-0.8,0-1.5,0.1-2.3,0c-0.8-0.1-1,0.2-0.8,0.9
		c0.1,0.4,0.9-0.1,0.7,0.5c-0.1,0.4-0.6,0.2-1,0.2c-0.7,0-1.4,0-1.8,0c0.8,0.1,1.9-0.1,2.9,0.1c-0.3,0.3-0.6,0.1-0.9,0.2
		c-1.1,0-2.1,0-3.2,0c-0.9,0-1.5-0.5-1.5-1.5c0-4.8,0-9.5,0-14.3c0-0.6,0.2-1.1,0.9-1.3c0.2,0.2,0.5,0,0.6,0.1
		c-0.1,0-0.3,0.1-0.5-0.1c0.3-0.2,0.7-0.1,1.1-0.1c6.3,0,12.6,0,18.8,0c0.9,0,1.5,0.2,2,0.9c0,5.1,0,10.3,0,15.4
		c-0.5,0.7-1.2,1-2,0.9c-1-0.1-2,0-3,0c-0.6,0-0.8-0.2-0.6-0.7c0.3-0.2,0.7,0.1,0.9-0.3c0.1-0.7,0-1-0.8-0.9c-0.9,0.1-1.9,0-2.8,0
		c1.1-0.3,2.2-0.1,3-0.1c-0.8,0-1.9,0-2.9,0C26.8,30,26.7,30.2,26.6,30.3z"/>
	<path class="st2" d="M17.9,31.9c-1.1,0-2.2,0-3.3,0c0-0.1,0-0.1,0-0.2c1,0,2,0,3,0c0-0.5-0.6-0.3-0.6-0.6
		C17.6,31.1,18.2,31,17.9,31.9z"/>
	<path class="st2" d="M26.6,30.3c0-0.2,0.2-0.4,0.4-0.4c1.1,0,2.2,0,3.2,0c0,0.1,0,0.2,0,0.2c-1.1,0-2.3,0-3.4,0
		C26.7,30.2,26.7,30.3,26.6,30.3z"/>
	<path class="st2" d="M27.5,31.9c-0.2-0.2-0.3-0.6-0.8-0.6c0,0,0-0.1,0-0.1c0,0,0,0,0.1-0.1C27.5,31,27.7,31.3,27.5,31.9z"/>
	<path class="st2" d="M20.7,31.2c-0.2,0.3-0.6,0.4-0.7,0.8C19.8,31.3,20,31,20.7,31.2z"/>
	<path class="st2" d="M13.3,15c0.3,0,0.5,0,1,0.1c-0.5,0.2-0.8,0.2-1.1,0C13.2,15,13.2,15,13.3,15z"/>
	<path class="st2" d="M30.4,31.1c-0.2,0.4-0.6,0.2-0.9,0.3C29.7,30.9,30.2,31.3,30.4,31.1z"/>
	<path class="st4" d="M15.8,27c-1.2-0.1-1.5-0.7-0.9-1.8c0.4-0.8,1.2-1,2-1.3c1.5-0.5,1.6-0.7,0.6-2c-0.9-1.2-0.7-2.9,0.4-3.5
		c0.8-0.4,1.8-0.3,2.4,0.3c0.7,0.7,0.8,1.9,0.3,2.8c-1,1.8-1,1.8,1,2.6c1.4,0.5,1.8,1.3,1.6,2.9c-0.5,0.2-1.1,0.1-1.6,0.1
		C19.7,27,17.7,27.2,15.8,27z"/>
	<path class="st5" d="M24.6,22.2c0.2-0.4,0.6-0.2,0.9-0.2c2,0,3.9,0,5.9,0c1,0,1.1,0.3,0.8,1.1c-0.3,0.2-0.7,0.1-1.1,0.1
		c-1.9,0-3.7,0-5.6,0c-0.3,0-0.6,0.1-0.9-0.1c-0.1-0.1-0.1-0.1-0.2-0.2C24.4,22.7,24.4,22.5,24.6,22.2z"/>
	<path class="st6" d="M24.6,24.6c0.2-0.4,0.6-0.2,0.9-0.2c2,0,3.9,0,5.9,0c1,0,1.1,0.3,0.9,1.1c-0.8,0.2-1.7,0.1-2.5,0.1
		c-1.4,0-2.8,0-4.2,0c-0.3,0-0.6,0.1-0.9-0.2C24.4,25.2,24.4,24.9,24.6,24.6z"/>
	<path class="st7" d="M28.6,19.6c1,0,2.1,0,3.1,0c0.4,0,0.6,0,0.6,0.5c0,0.5-0.3,0.5-0.6,0.5c-2.1,0-4.3,0-6.4,0
		c-0.3,0-0.7,0.1-0.7-0.5c0-0.5,0.3-0.5,0.7-0.5C26.4,19.6,27.5,19.6,28.6,19.6z"/>
	<path class="st2" d="M14.7,15.1c6.2,0,12.4,0,18.6,0c0,0,0,0.1,0,0.1C27.1,15.2,20.9,15.2,14.7,15.1C14.7,15.1,14.7,15.1,14.7,15.1
		z"/>
	<path class="st2" d="M12.5,30.1c0-4.4,0-8.8,0-13.2c0,0,0.1,0,0.1,0C12.6,21.3,12.6,25.7,12.5,30.1C12.6,30.1,12.5,30.1,12.5,30.1z
		"/>
	<path class="st2" d="M24.6,25.3c0.3,0.3,0.6,0.1,1,0.2c2.2,0,4.5,0,6.7,0c0.1,0,0.1,0,0.2,0l0,0c-0.2,0.3-0.5,0.2-0.8,0.2
		c-2.1,0-4.3,0-6.4,0c-0.4,0-0.7,0.1-0.9-0.4C24.5,25.2,24.5,25.2,24.6,25.3z"/>
	<path class="st2" d="M24.8,23.1c2.5,0,5,0,7.5,0c0.1,0.3-0.1,0.2-0.2,0.2c-2.2,0-4.5,0-6.7,0C25.1,23.3,24.9,23.3,24.8,23.1z"/>
	<path class="st2" d="M32.3,20.9c-2.4,0-4.8,0-7.3,0c0,0,0,0,0-0.1C27.4,20.8,29.8,20.8,32.3,20.9C32.3,20.8,32.3,20.8,32.3,20.9z"
		/>
	<path class="st2" d="M15.8,27c2.5,0,5,0,7.5,0c-0.1,0.2-0.4,0.2-0.6,0.2c-2.2,0-4.3,0-6.5,0C16.1,27.2,15.9,27.2,15.8,27z"/>
	<path class="st2" d="M24.8,21.7c2.3,0,4.7,0,7,0c0,0,0,0.1,0,0.1C29.5,21.8,27.1,21.8,24.8,21.7C24.8,21.7,24.8,21.7,24.8,21.7z"/>
	<path class="st2" d="M26.9,31.9c-2.1,0-4.2,0-6.4,0c0,0,0-0.1,0-0.1C22.7,31.8,24.8,31.8,26.9,31.9C26.9,31.8,26.9,31.9,26.9,31.9z
		"/>
	<path class="st2" d="M17.3,30c1.1,0,2.3,0,3.4,0c0,0,0,0.1,0,0.1C19.6,30,18.4,30,17.3,30C17.3,30,17.3,30,17.3,30z"/>
	<path class="st2" d="M32.5,25.5c0-0.3,0-0.6,0-0.9C32.7,24.9,32.7,25.2,32.5,25.5L32.5,25.5z"/>
	<path class="st2" d="M24.6,22.2c0,0.2,0,0.4,0,0.6c-0.3,0.2-0.2-0.1-0.2-0.2C24.5,22.6,24.1,22.2,24.6,22.2z"/>
	<path class="st2" d="M21.2,19.8c0.1,0.3,0.1,0.5,0,0.8C21.1,20.3,21,20.1,21.2,19.8z"/>
	<path class="st2" d="M24.6,25.3c-0.1,0-0.1,0-0.2,0c0.1-0.2-0.2-0.6,0.2-0.7C24.6,24.9,24.6,25.1,24.6,25.3z"/>
</g>
<g id="Layer_3">
</g>
</svg>
