<svg xmlns="http://www.w3.org/2000/svg" xmlns:xlink="http://www.w3.org/1999/xlink" width="1801" height="431.5" viewBox="0 0 1801 431.5">
  <defs>
    <linearGradient id="linear-gradient" x1="0.482" y1="0.031" x2="0.485" y2="0.774" gradientUnits="objectBoundingBox">
      <stop offset="0" stop-color="#00bede" stop-opacity="0.988"/>
      <stop offset="1" stop-color="#35e1ca" stop-opacity="0.11"/>
    </linearGradient>
    <linearGradient id="linear-gradient-2" x1="0.518" y1="1.921" x2="0.482" y2="-1.337" gradientUnits="objectBoundingBox">
      <stop offset="0" stop-color="#0060ff"/>
      <stop offset="1" stop-color="#84b2ff"/>
    </linearGradient>
    <linearGradient id="linear-gradient-3" x1="0.484" y1="0.294" x2="0.486" y2="0.815" gradientUnits="objectBoundingBox">
      <stop offset="0" stop-color="#238bea"/>
      <stop offset="0.732" stop-color="#1fd3d2" stop-opacity="0.4"/>
      <stop offset="1" stop-color="#35d3e1" stop-opacity="0.141"/>
    </linearGradient>
  </defs>
  <g id="Group_12177" data-name="Group 12177" transform="translate(-60 -316)">
    <rect id="Rectangle_2519" data-name="Rectangle 2519" width="1801" height="431" transform="translate(60 316)" fill="none"/>
    <g id="Group_3654" data-name="Group 3654" transform="translate(-7.143 -96.702)">
      <g id="Group_3652" data-name="Group 3652" transform="translate(1058.143 504.702)">
        <g id="Group_1412" data-name="Group 1412" transform="translate(495.943 60.939)">
          <ellipse id="Ellipse_13" data-name="Ellipse 13" cx="11.793" cy="12.547" rx="11.793" ry="12.547" transform="matrix(0.998, -0.069, 0.069, 0.998, 0, 1.623)" fill="#fff"/>
          <path id="Union_4" data-name="Union 4" d="M79.47,122.463l-.072.12s-.168-.115-.487-.343a12.726,12.726,0,0,1-4.9-3.737C58.618,106.159,14.562,65.949,0,0,0,0,18.517,51.269,87.449,97.39a12.547,12.547,0,0,1,4.688,3.078l.285.183-.044.073a13.728,13.728,0,0,1,3.532,8.347c.5,7.311-4.658,13.623-11.529,14.1-.274.019-.548.028-.819.028A11.792,11.792,0,0,1,79.47,122.463Z" transform="translate(98.621 162.29) rotate(-169)" fill="#fff" stroke="rgba(0,0,0,0)" stroke-miterlimit="10" stroke-width="1"/>
        </g>
        <path id="Path_552" data-name="Path 552" d="M1097.174,346.344v-57.6c0-115.841,99.26-209.748,221.7-209.748s221.7,93.908,221.7,209.748v57.6" transform="translate(-926.952 -75.269)" opacity="0.2" fill="url(#linear-gradient)"/>
        <path id="Path_527" data-name="Path 527" d="M1526.539,367.057H1347.814V311.344h157.547l14.7,11.946a17.541,17.541,0,0,1,6.477,13.612Z" transform="translate(-981.271 -123.868)" fill="#e2edff"/>
        <g id="Path_529" data-name="Path 529" transform="translate(-974.593 -127.918)" fill="none">
          <path d="M1340.109,366.083c0-20.334,9.218-36.818,20.591-36.818h-21.844c-11.372,0-20.591,16.484-20.591,36.818s9.219,36.817,20.591,36.817H1360.7C1349.327,402.9,1340.109,386.417,1340.109,366.083Z" stroke="none"/>
          <path d="M 1353.692260742188 401.9004821777344 C 1350.53515625 400.029541015625 1347.658325195313 396.881103515625 1345.266967773438 392.6051940917969 C 1341.296142578125 385.5049133300781 1339.109252929688 376.0858764648438 1339.109252929688 366.0831604003906 C 1339.109252929688 356.0803833007813 1341.296142578125 346.6611633300781 1345.266967773438 339.5606689453125 C 1347.658569335938 335.2841796875 1350.534912109375 332.1359252929688 1353.6923828125 330.2649841308594 L 1338.856079101563 330.2649841308594 C 1336.299072265625 330.2649841308594 1333.805297851563 331.1703491210938 1331.4443359375 332.9559326171875 C 1329.103271484375 334.7264099121094 1326.991943359375 337.2770080566406 1325.168701171875 340.5368957519531 C 1323.322875976563 343.8373107910156 1321.871948242188 347.6880187988281 1320.856079101563 351.9820861816406 C 1319.800170898438 356.4458923339844 1319.264770507813 361.190185546875 1319.264770507813 366.0831604003906 C 1319.264770507813 370.9761352539063 1319.800170898438 375.7203674316406 1320.856079101563 380.18408203125 C 1321.871948242188 384.47802734375 1323.322875976563 388.3286437988281 1325.168701171875 391.6289367675781 C 1326.991943359375 394.8887023925781 1329.103271484375 397.4392395019531 1331.4443359375 399.2096557617188 C 1333.805297851563 400.9951477050781 1336.298950195313 401.9004821777344 1338.856079101563 401.9004821777344 L 1353.692260742188 401.9004821777344 M 1360.700317382813 402.9004821777344 L 1338.856079101563 402.9004821777344 C 1327.484130859375 402.9004821777344 1318.264770507813 386.4171752929688 1318.264770507813 366.0831604003906 C 1318.264770507813 345.7490539550781 1327.484130859375 329.2649841308594 1338.856079101563 329.2649841308594 L 1360.700317382813 329.2649841308594 C 1349.327026367188 329.2649841308594 1340.109252929688 345.7490539550781 1340.109252929688 366.0831604003906 C 1340.109252929688 386.4171752929688 1349.327026367188 402.9004821777344 1360.700317382813 402.9004821777344 Z" stroke="none" fill="#002226"/>
        </g>
        <ellipse id="Ellipse_8" data-name="Ellipse 8" cx="20.591" cy="36.818" rx="20.591" ry="36.818" transform="translate(365.516 201.347)" fill="#002226"/>
        <ellipse id="Ellipse_9" data-name="Ellipse 9" cx="14.599" cy="28.71" rx="14.599" ry="28.71" transform="translate(373.165 209.455)" fill="#fff"/>
        <g id="Path_530" data-name="Path 530" transform="translate(-939.939 -127.918)" fill="none">
          <path d="M1186.768,366.083c0-20.334,9.22-36.818,20.591-36.818h-21.843c-11.373,0-20.592,16.484-20.592,36.818s9.219,36.817,20.592,36.817h21.843C1195.988,402.9,1186.768,386.417,1186.768,366.083Z" stroke="none"/>
          <path d="M 1200.351684570313 401.9004821777344 C 1197.194702148438 400.029541015625 1194.317993164063 396.881103515625 1191.926391601563 392.605224609375 C 1187.955078125 385.5045776367188 1185.767944335938 376.0855407714844 1185.767944335938 366.0831604003906 C 1185.767944335938 356.0807189941406 1187.955078125 346.6614990234375 1191.926391601563 339.5606384277344 C 1194.318237304688 335.2841796875 1197.194458007813 332.1359252929688 1200.351806640625 330.2649841308594 L 1185.515991210938 330.2649841308594 C 1182.958740234375 330.2649841308594 1180.46484375 331.1703491210938 1178.103759765625 332.9559326171875 C 1175.762573242188 334.7264099121094 1173.651123046875 337.2770080566406 1171.827880859375 340.5369262695313 C 1169.982055664063 343.8372802734375 1168.531127929688 347.68798828125 1167.515258789063 351.9820861816406 C 1166.459350585938 356.4458618164063 1165.923950195313 361.1901550292969 1165.923950195313 366.0831604003906 C 1165.923950195313 370.9761657714844 1166.459350585938 375.7203979492188 1167.515258789063 380.18408203125 C 1168.531005859375 384.4780578613281 1169.982055664063 388.3286437988281 1171.827880859375 391.6289367675781 C 1173.651123046875 394.8887023925781 1175.762573242188 397.4392395019531 1178.103759765625 399.2096252441406 C 1180.46484375 400.9951477050781 1182.958618164063 401.9004821777344 1185.515991210938 401.9004821777344 L 1200.351684570313 401.9004821777344 M 1207.359252929688 402.9004821777344 L 1185.515991210938 402.9004821777344 C 1174.14306640625 402.9004821777344 1164.923950195313 386.4171752929688 1164.923950195313 366.0831604003906 C 1164.923950195313 345.7490539550781 1174.14306640625 329.2649841308594 1185.515991210938 329.2649841308594 L 1207.359252929688 329.2649841308594 C 1195.987548828125 329.2649841308594 1186.767944335938 345.7490539550781 1186.767944335938 366.0831604003906 C 1186.767944335938 386.4171752929688 1195.987548828125 402.9004821777344 1207.359252929688 402.9004821777344 Z" stroke="none" fill="#002226"/>
        </g>
        <g id="Ellipse_10" data-name="Ellipse 10" transform="translate(246.828 201.347)" fill="none" stroke="#002226" stroke-width="1">
          <ellipse cx="20.591" cy="36.818" rx="20.591" ry="36.818" stroke="none"/>
          <ellipse cx="20.591" cy="36.818" rx="20.091" ry="36.318" fill="none"/>
        </g>
        <g id="Path_531" data-name="Path 531" transform="translate(-1015.792 -127.918)" fill="none">
          <path d="M1522.415,366.083c0-20.334,9.219-36.818,20.592-36.818h-21.844c-11.372,0-20.592,16.484-20.592,36.818s9.219,36.817,20.592,36.817h21.844C1531.634,402.9,1522.415,386.417,1522.415,366.083Z" stroke="none"/>
          <path d="M 1535.998657226563 401.9004821777344 C 1532.841552734375 400.029541015625 1529.964721679688 396.881103515625 1527.573120117188 392.605224609375 C 1523.601928710938 385.5047302246094 1521.414794921875 376.0856628417969 1521.414794921875 366.0831604003906 C 1521.414794921875 356.08056640625 1523.601928710938 346.661376953125 1527.573120117188 339.5606384277344 C 1529.964965820313 335.2841796875 1532.84130859375 332.1359252929688 1535.998779296875 330.2649841308594 L 1521.162719726563 330.2649841308594 C 1518.60546875 330.2649841308594 1516.11181640625 331.1703491210938 1513.750732421875 332.9559326171875 C 1511.40966796875 334.7264099121094 1509.298217773438 337.2770080566406 1507.47509765625 340.5368957519531 C 1505.629272460938 343.8373107910156 1504.17822265625 347.6880187988281 1503.162475585938 351.9820861816406 C 1502.106567382813 356.4458618164063 1501.571166992188 361.1901550292969 1501.571166992188 366.0831604003906 C 1501.571166992188 370.9761352539063 1502.106567382813 375.7203674316406 1503.162475585938 380.18408203125 C 1504.17822265625 384.47802734375 1505.629272460938 388.3286437988281 1507.47509765625 391.6289367675781 C 1509.298217773438 394.8887329101563 1511.40966796875 397.4392395019531 1513.750732421875 399.2096557617188 C 1516.11181640625 400.9951477050781 1518.60546875 401.9004821777344 1521.162719726563 401.9004821777344 L 1535.998657226563 401.9004821777344 M 1543.006591796875 402.9004821777344 L 1521.162719726563 402.9004821777344 C 1509.790283203125 402.9004821777344 1500.571166992188 386.4171752929688 1500.571166992188 366.0831604003906 C 1500.571166992188 345.7490539550781 1509.790283203125 329.2649841308594 1521.162719726563 329.2649841308594 L 1543.006591796875 329.2649841308594 C 1531.633911132813 329.2649841308594 1522.414794921875 345.7490539550781 1522.414794921875 366.0831604003906 C 1522.414794921875 386.4171752929688 1531.633911132813 402.9004821777344 1543.006591796875 402.9004821777344 Z" stroke="none" fill="#002226"/>
        </g>
        <ellipse id="Ellipse_11" data-name="Ellipse 11" cx="20.591" cy="36.818" rx="20.591" ry="36.818" transform="translate(506.623 201.347)" fill="#002226"/>
        <ellipse id="Ellipse_12" data-name="Ellipse 12" cx="14.599" cy="28.71" rx="14.599" ry="28.71" transform="translate(514.272 209.455)" fill="#fff"/>
        <path id="Path_532" data-name="Path 532" d="M1279.172,379.441h-26.413l-1.476-1.475a8.118,8.118,0,0,0-5.74-2.378h-66.021a8.118,8.118,0,0,0-5.74,2.378l-.9.9h-2.409a14.182,14.182,0,0,1-14.181-14.181V342.908h149.836l-11.938,25.917A15.935,15.935,0,0,1,1279.172,379.441Z" transform="translate(-937.99 -131.001)" fill="url(#linear-gradient-2)"/>
        <path id="Path_533" data-name="Path 533" d="M1279.172,379.441h-26.413l-1.476-1.475a8.118,8.118,0,0,0-5.74-2.378h-66.021a8.118,8.118,0,0,0-5.74,2.378l-.9.9h-2.409a14.182,14.182,0,0,1-14.181-14.181V342.908h149.836l-11.938,25.917A15.935,15.935,0,0,1,1279.172,379.441Z" transform="translate(-937.99 -131.001)" fill="#e2edff" stroke="#002226" stroke-width="1"/>
        <path id="Path_534" data-name="Path 534" d="M1516.4,219.315a.507.507,0,0,1-.259-.07.513.513,0,0,1-.184-.7l7.192-12.329a.514.514,0,1,1,.887.518l-7.192,12.329A.513.513,0,0,1,1516.4,219.315Z" transform="translate(-1019.254 -100.052)" fill="#1a2e35"/>
        <path id="Path_535" data-name="Path 535" d="M1521.6,281.689V267.675c0-7.364-10.706-42.127-25.432-48.634s-50.347-9.418-72.781-8.22-52.36,48.12-52.36,48.12l3.152,38.761c4.558,0,19.188.227,21.319,40.154a10.979,10.979,0,0,0,10.947,10.419H1485a10.956,10.956,0,0,0,10.853-9.417c2.014-14.229,7.417-39.566,20.348-39.566,9.077,0,15.584,7.769,15.584,16.674h0a60.372,60.372,0,0,0-6.931-28.086Z" transform="translate(-986.516 -99.506)" fill="#e2edff" stroke="#002226" stroke-width="1"/>
        <path id="Path_536" data-name="Path 536" d="M1307.024,210.9c-40.871,0-87.164,48.12-87.164,48.12h117s29.927-46.921,52.36-48.12Z" transform="translate(-952.355 -99.583)" fill="#fff" stroke="#002226" stroke-width="1"/>
        <path id="Path_538" data-name="Path 538" d="M1322.5,273.068l-43.224,34.107-116.3-.371s-6.679,9.7-6.679,20.321h149.836c2.454-6.507,11.06-13.7,19.622-13.7C1325.753,301.324,1322.5,273.068,1322.5,273.068Z" transform="translate(-937.99 -115.218)" fill="#e2edff" stroke="#002226" stroke-width="1"/>
        <path id="Path_540" data-name="Path 540" d="M1164.924,306.8s20.431-23.8,42.521-33.736h117l-43.224,34.107Z" transform="translate(-939.94 -115.218)" fill="#e2edff" stroke="#002226" stroke-width="1"/>
        <rect id="Rectangle_2164" data-name="Rectangle 2164" width="76.719" height="2.226" transform="translate(238.736 191.586)"/>
        <path id="Path_541" data-name="Path 541" d="M1279.175,307.126,1283.3,303a6.817,6.817,0,0,1,3.372-1.842l31.045-6.761a6.815,6.815,0,0,1,3.3.1l1.66.467a6.823,6.823,0,0,1,3.287,11.06l-6.674,7.626a6.818,6.818,0,0,1-4.5,2.3l-30.156,2.793a6.821,6.821,0,0,1-5.444-1.959h0A6.821,6.821,0,0,1,1279.175,307.126Z" transform="translate(-965.307 -120.003)" fill="#fff" stroke="#002226" stroke-width="1"/>
        <path id="Path_542" data-name="Path 542" d="M1180.208,310.985l-3.409-6.357a5.6,5.6,0,0,0-2.058-2.158h0a5.6,5.6,0,0,0-5.484-.156l-2.578,1.351a5.6,5.6,0,0,0-2.705,3.163l-1.579,4.653a5.605,5.605,0,0,0,4.354,7.324l7.1,1.226a5.6,5.6,0,0,0,5.888-2.865l.472-.875A5.6,5.6,0,0,0,1180.208,310.985Z" transform="translate(-939.3 -121.682)" fill="#fff" stroke="#002226" stroke-width="1"/>
        <path id="Path_543" data-name="Path 543" d="M1400.226,262.488H1508.4a5.878,5.878,0,0,0,5.628-7.572c-2.46-8.228-7.2-21.073-14.291-27.629a5.924,5.924,0,0,0-2.807-1.436c-12.75-2.7-33.25-4.5-48.458-5.547a47.812,47.812,0,0,0-37.406,14.214,131.224,131.224,0,0,0-15.6,19.041A5.742,5.742,0,0,0,1400.226,262.488Z" transform="translate(-991.818 -103.268)" fill="#fff" stroke="#000" stroke-width="1"/>
        <path id="Path_544" data-name="Path 544" d="M1307.03,356.686c0,3.373-3.45,6.108-7.706,6.108s-7.706-2.735-7.706-6.108,3.449-6.108,7.706-6.108S1307.03,353.313,1307.03,356.686Z" transform="translate(-968.571 -132.734)"/>
        <path id="Path_545" data-name="Path 545" d="M1229.348,310.629c2.529,0,3.763,2.586,2.756,5.777s-3.872,5.776-6.4,5.776-3.762-2.586-2.756-5.776S1226.819,310.629,1229.348,310.629Z" transform="translate(-952.973 -123.706)" fill="#002226"/>
        <path id="Path_546" data-name="Path 546" d="M1163.061,356.686c0,3.373-.971,6.108-2.169,6.108s-2.169-2.735-2.169-6.108.97-6.108,2.169-6.108S1163.061,353.313,1163.061,356.686Z" transform="translate(-938.538 -132.734)"/>
        <path id="Path_547" data-name="Path 547" d="M1397.594,270.611v-3.462a6.686,6.686,0,0,1,8.05-6.545l13.171,2.746a6.686,6.686,0,0,1,5.321,6.545v.716a6.685,6.685,0,0,1-6.685,6.686H1404.28A6.686,6.686,0,0,1,1397.594,270.611Z" transform="translate(-992.521 -112.369)" fill="#002226"/>
        <path id="Path_548" data-name="Path 548" d="M1485.727,222.059s-1.757-.176-4.823-.447c13.549,27.755,10.095,41.2,10.095,41.2h10.332C1501.436,245.914,1485.727,222.059,1485.727,222.059Z" transform="translate(-1011.348 -103.59)" fill="#002226"/>
        <path id="Path_549" data-name="Path 549" d="M1320.313,250.668a8.815,8.815,0,0,1-8.772,7.968h-53.246c-3.886,0-5.293-4.33-2.482-7.564a151,151,0,0,1,16.5-16.109c10.025-8.441,22.478-12.832,34.12-12.023,1.418.1,2.892.207,4.405.323a8.823,8.823,0,0,1,7.946,6.956A67.076,67.076,0,0,1,1320.313,250.668Z" transform="translate(-960.146 -103.868)" fill="#edf0f5" opacity="0.51"/>
        <path id="Path_550" data-name="Path 550" d="M1495.383,356.1a.514.514,0,0,1-.514-.514c0-10.4,5.3-53.271,6.69-59.7,1.349-6.237,1.352-13.195.01-17.727a.514.514,0,0,1,.985-.291c1.388,4.683,1.392,11.842.009,18.235-1.385,6.409-6.666,49.127-6.666,59.485A.514.514,0,0,1,1495.383,356.1Z" transform="translate(-1014.504 -116.218)" fill="#002226"/>
        <path id="Path_551" data-name="Path 551" d="M1489.648,300.371h-12.529a1.552,1.552,0,0,1-1.563-1.9l.257-1.456a2.373,2.373,0,0,1,2.234-1.9h12.529a1.552,1.552,0,0,1,1.562,1.9l-.257,1.456A2.372,2.372,0,0,1,1489.648,300.371Z" transform="translate(-1010.132 -120.201)"/>
        <path id="Path_553" data-name="Path 553" d="M1097.174,344.452V287.265c0-115.021,99.26-208.265,221.7-208.265s221.7,93.244,221.7,208.265v57.188" transform="translate(-924.629 -73.684)" fill="none" stroke="#195dff" stroke-linecap="round" stroke-miterlimit="10" stroke-width="1"/>
        <line id="Line_61" data-name="Line 61" x2="365.48" transform="translate(335.83 275.213)" fill="none" stroke="#195dff" stroke-linecap="round" stroke-miterlimit="10" stroke-width="1"/>
        <line id="Line_194" data-name="Line 194" x2="115.83" transform="translate(0 275.213)" fill="none" stroke="#195dff" stroke-linecap="round" stroke-miterlimit="10" stroke-width="1"/>
        <line id="Line_195" data-name="Line 195" x2="63.801" transform="translate(226.891 275.213)" fill="none" stroke="#195dff" stroke-linecap="round" stroke-miterlimit="10" stroke-width="1"/>
        <path id="Path_562" data-name="Path 562" d="M1116.814,503.155h-14.2a10.139,10.139,0,0,1,6.716-2.379.673.673,0,0,0,.658-.687.664.664,0,0,0-.687-.658c-5.254.114-7.808,2.8-8.537,3.723H1069.49a.673.673,0,0,0,0,1.345h47.324a.673.673,0,1,0,0-1.345Z" transform="translate(-918.221 -166.374)" fill="#0e215c"/>
        <path id="Path_990" data-name="Path 990" d="M1097.174,346.344v-57.6c0-115.841,99.26-209.748,221.7-209.748s221.7,93.908,221.7,209.748v57.6" transform="translate(-924.629 -72.945)" opacity="0.2" fill="url(#linear-gradient-3)"/>
        <path id="Path_554" data-name="Path 554" d="M1136.692,139.549h-14.23a.469.469,0,0,1-.436-.64l12.043-30.593a.47.47,0,0,1,.436-.3h14.231a.468.468,0,0,1,.436.639l-12.044,30.593A.467.467,0,0,1,1136.692,139.549Z" transform="translate(-930.238 -77.919)" fill="#35d3e1" stroke="#002226" stroke-width="1"/>
        <path id="Path_555" data-name="Path 555" d="M1135.634,130.775h-9.756a.321.321,0,0,1-.3-.439l8.258-20.976a.321.321,0,0,1,.3-.2h9.757a.321.321,0,0,1,.3.439l-8.257,20.976A.323.323,0,0,1,1135.634,130.775Z" transform="translate(-929.458 -76.591)" fill="#fff"/>
        <path id="Path_556" data-name="Path 556" d="M1080.429,453.257s-2.935-33.337-6.08-63.949,5.241-33.967,7.548-37.741c1.527-2.5.482-10.869-.4-16.248l-14.906-.614,2.462,14.473a4.983,4.983,0,0,1-.372,2.9c-9.163,20.112-3.242,36.016,1.474,56.935a183.349,183.349,0,0,1,4.22,38.663,7.118,7.118,0,0,1-1.007,3.588,39.358,39.358,0,0,0-4.893,13.875,1.594,1.594,0,0,0,1.616,1.83l6.782-.169C1075.833,463.785,1080.429,453.257,1080.429,453.257Z" transform="translate(-917.103 -129.148)" fill="#f8feff" stroke="#002226" stroke-width="1" style="isolation: isolate"/>
        <path id="Path_557" data-name="Path 557" d="M1109.174,462.452c-2.812-1.215-10.41-5.183-14.38-7.276a4.007,4.007,0,0,1-2.1-4.107c2.089-14.7,11.822-82.894,14-92.614a64.118,64.118,0,0,0,.512-22.015l-22.853-.942c.882,5.379,1.926,13.75.4,16.248-2.306,3.774-10.693,7.129-7.548,37.741s6.079,63.949,6.079,63.949-4.595,10.528-3.556,13.546l38.825-.966C1118.6,463.082,1113.056,464.13,1109.174,462.452Z" transform="translate(-919.958 -129.327)" fill="#f8feff" stroke="#002226" stroke-width="1" style="isolation: isolate"/>
        <path id="Path_558" data-name="Path 558" d="M1056.21,177.039s7.625,43.071,5.358,47.4-23.492,37.969-24.935,74.008c0,0,8.037,12.133,41.216,9.248s33.057-4.946,33.057-4.946l-2.727-20.608,6.558,18.959,3.915-2.039s-11.334-29.491-12.158-41.443-8.037-29.246-8.037-29.246,7.212-33.608,5.564-46.8S1056.21,177.039,1056.21,177.039Z" transform="translate(-910.947 -92.886)" fill="#dcf5f8" stroke="#000" stroke-width="1"/>
        <path id="Path_559" data-name="Path 559" d="M1111.71,142.47s10.206-11.787,13.435-12.057-5.171,10.487-5.171,10.487,6.171,3.516,6.036,5.277-3.326,8.487-3.326,8.487Z" transform="translate(-927.914 -82.978)" fill="#edf0f5" stroke="#002226" stroke-width="0.7" style="isolation: isolate"/>
        <path id="Path_560" data-name="Path 560" d="M1104.777,137.914s10.7-3.81,16.314,5.5,6.686,16.657,8.7,23.63c12.248,49.762-1.45-20.9,0-26.128s5.257-7.948,5.438-11.211-1.269-12.859.544-12.5,3.444,9.058,3.444,9.058l3.081-9.068s6.746,9.068,2.648,14.144-8.086,10.513-7.361,14.5,15.007,58.006,8.681,65.8-21.007,6.707-32.064-32.265S1104.777,137.914,1104.777,137.914Z" transform="translate(-926.328 -79.993)" fill="#f8feff" stroke="#002226" stroke-width="1" style="isolation: isolate"/>
        <path id="Path_561" data-name="Path 561" d="M1049.822,101.533s0,22.774-8.449,31.968-11.182,23.108-3.479,32.3c0,0-6.212,20.459,10.437,27.623a28.588,28.588,0,0,0,28.823-3.023s12.671-2.485,12.92-12.673c0,0,14.909-.5,11.679-22.363s-7.667-18.483-6.709-31.267c0,0,15.029-11.4,11.987-29.08S1082.8,66.073,1071.8,69.864,1048.58,81,1049.822,101.533Z" transform="translate(-910.207 -69.13)" fill="#002226"/>
        <line id="Line_62" data-name="Line 62" x2="330.035" transform="translate(88.655 339)" fill="none" stroke="#195dff" stroke-linecap="round" stroke-miterlimit="10" stroke-width="1"/>
        <g id="Group_1411" data-name="Group 1411" transform="translate(40.565 205.559)">
          <path id="Path_659" data-name="Path 659" d="M480.487,742.541a11.435,11.435,0,0,0,5.887-4.11,10.584,10.584,0,0,0-.274-11.992c-1.359-1.666-3.188-2.61-4.357-4.521a8.159,8.159,0,0,1-.472-8.042s4.7-5.8-3.133-10.024c0,0-4.073-1.88-1.723-7.048,0,0,2.036-7.049-5.64-7.362,0,0-7.99-.783-6.267,8.3.312,1.648,1.153,2.527.145,4.3-1.909,3.366-7.076,3.281-6.8,8.139.153,2.7,2.3,4.879,2.246,7.614-.081,3.817-3.545,5.29-5.667,7.868a11.641,11.641,0,0,0-2.367,4.311c-1.519,5.655,3.351,9.972,7.741,12.561" transform="translate(-451.781 -689.426)" fill="#eaf9fb" stroke="#000" stroke-linecap="round" stroke-miterlimit="10" stroke-width="1"/>
          <line id="Line_55" data-name="Line 55" y1="27.097" transform="translate(17.425 41.525)" fill="none" stroke="#002226" stroke-linecap="round" stroke-miterlimit="10" stroke-width="1"/>
          <line id="Line_56" data-name="Line 56" y1="18.953" transform="translate(17.425 20.692)" fill="none" stroke="#002226" stroke-linecap="round" stroke-miterlimit="10" stroke-width="1"/>
          <line id="Line_57" data-name="Line 57" y1="4.699" x2="4.857" transform="translate(17.425 28.367)" fill="none" stroke="#002226" stroke-linecap="round" stroke-miterlimit="10" stroke-width="1"/>
          <line id="Line_58" data-name="Line 58" x1="3.133" y1="3.133" transform="translate(14.292 20.379)" fill="none" stroke="#002226" stroke-linecap="round" stroke-miterlimit="10" stroke-width="1"/>
          <line id="Line_59" data-name="Line 59" y1="6.579" transform="translate(17.896 10.355)" fill="none" stroke="#002226" stroke-linecap="round" stroke-miterlimit="10" stroke-width="1"/>
        </g>
        <g id="Group_1493" data-name="Group 1493" transform="translate(684.333 223.228)">
          <path id="Path_659-2" data-name="Path 659" d="M473.1,728.865a8.491,8.491,0,0,0,4.371-3.051,7.858,7.858,0,0,0-.2-8.9c-1.009-1.237-2.367-1.938-3.236-3.357a6.058,6.058,0,0,1-.35-5.971s3.49-4.3-2.327-7.443c0,0-3.024-1.4-1.28-5.234,0,0,1.512-5.234-4.188-5.466,0,0-5.932-.582-4.653,6.163.232,1.223.856,1.877.108,3.2-1.417,2.5-5.254,2.436-5.049,6.044.114,2.007,1.711,3.623,1.668,5.653-.06,2.834-2.632,3.928-4.208,5.842a8.644,8.644,0,0,0-1.757,3.2c-1.128,4.2,2.488,7.4,5.748,9.327" transform="translate(-451.781 -689.426)" fill="#eaf9fb" stroke="#000" stroke-linecap="round" stroke-miterlimit="10" stroke-width="1"/>
          <line id="Line_55-2" data-name="Line 55" y1="20.12" transform="translate(12.939 30.832)" fill="none" stroke="#002226" stroke-linecap="round" stroke-miterlimit="10" stroke-width="1"/>
          <line id="Line_56-2" data-name="Line 56" y1="14.072" transform="translate(12.939 15.364)" fill="none" stroke="#002226" stroke-linecap="round" stroke-miterlimit="10" stroke-width="1"/>
          <line id="Line_57-2" data-name="Line 57" y1="3.489" x2="3.606" transform="translate(12.939 21.063)" fill="none" stroke="#002226" stroke-linecap="round" stroke-miterlimit="10" stroke-width="1"/>
          <line id="Line_58-2" data-name="Line 58" x1="2.327" y1="2.326" transform="translate(10.612 15.132)" fill="none" stroke="#002226" stroke-linecap="round" stroke-miterlimit="10" stroke-width="1"/>
          <line id="Line_59-2" data-name="Line 59" y1="4.885" transform="translate(13.288 7.688)" fill="none" stroke="#002226" stroke-linecap="round" stroke-miterlimit="10" stroke-width="1"/>
        </g>
        <ellipse id="Ellipse_13-2" data-name="Ellipse 13" cx="11.793" cy="12.547" rx="11.793" ry="12.547" transform="matrix(0.998, -0.069, 0.069, 0.998, 495.943, 62.562)" fill="#fff" opacity="0.6"/>
        <path id="Union_4-2" data-name="Union 4" d="M79.47,122.462l-.072.121s-.168-.115-.488-.343a12.733,12.733,0,0,1-4.894-3.736C58.618,106.159,14.562,65.949,0,0,0,0,18.52,51.27,87.451,97.391a12.546,12.546,0,0,1,4.683,3.075l.287.185-.044.074a13.728,13.728,0,0,1,3.533,8.347c.5,7.312-4.657,13.623-11.528,14.1q-.412.028-.82.028A11.79,11.79,0,0,1,79.47,122.462Z" transform="translate(594.564 223.229) rotate(-169)" fill="#fff" stroke="rgba(0,0,0,0)" stroke-miterlimit="10" stroke-width="1" opacity="0.6"/>
      </g>
    </g>
  </g>
</svg>
